<svg xmlns="http://www.w3.org/2000/svg" width="51.047" height="51.046" viewBox="0 0 51.047 51.046"><defs><style>.a{fill:#ef9645;}.b{fill:#ffdc5d;}.c{fill:#5dadec;}</style></defs><g transform="translate(0 -0.042)"><path class="a" d="M5.308,12a3.943,3.943,0,0,1,4.544.236l-1.374-2a2.962,2.962,0,0,1,.869-4.391,3.494,3.494,0,0,1,4.864.859L26.744,24.569l.1-.044L15.4,7.711a3.284,3.284,0,0,1,.686-4.729,3.524,3.524,0,0,1,4.906.867l14.792,20.9a3.544,3.544,0,0,1-1.024,4.893,3.449,3.449,0,0,1-.862.424v12.96H19.7V38.6a20.247,20.247,0,0,1-1.537-1.319L4.44,16.938A3.542,3.542,0,0,1,5.308,12Z" transform="translate(1.593 0.967)"/><path class="b" d="M2.854,23.959a2.78,2.78,0,0,1,.737-3.948,2.78,2.78,0,0,1,3.947.735l7.454,10.871a14.57,14.57,0,0,1,.852-1.269L5.5,15.262a2.78,2.78,0,0,1,.737-3.947,2.78,2.78,0,0,1,3.947.735l9.731,14.192c.362-.3.733-.592,1.114-.883L9.745,8.905a2.839,2.839,0,0,1,4.683-3.211L25.71,22.146c.415-.254.825-.474,1.236-.707L16.4,6.062a2.78,2.78,0,0,1,.735-3.947,2.78,2.78,0,0,1,3.947.735l11.15,16.26.893,1.3.8,1.171a14.226,14.226,0,0,0-3.68,19.736,1.39,1.39,0,0,0,1.973.369c-4.817-7.026-3.346-14.92,3.68-19.737L33.83,11.586a2.839,2.839,0,1,1,5.463-1.549l2.392,7.1a63.082,63.082,0,0,0,3.294,8.278A17.037,17.037,0,0,1,15.7,42.694c-.281-.412-.517-.813-.741-1.214l-.062.043L2.854,23.959Z" transform="translate(0.972 0.634)"/><g transform="translate(0 0.042)"><path class="c" d="M16.214,35.836C10.535,35.836,4.8,30.1,4.8,24.42A1.369,1.369,0,0,0,3.437,23a1.47,1.47,0,0,0-1.479,1.42c0,8.518,5.738,14.256,14.256,14.256a1.47,1.47,0,0,0,1.42-1.479A1.369,1.369,0,0,0,16.214,35.836Z" transform="translate(0.822 9.592)"/><path class="c" d="M9.937,47.428a6.706,6.706,0,0,1-7.1-7.1A1.42,1.42,0,1,0,0,40.33a9.7,9.7,0,0,0,9.937,9.937,1.42,1.42,0,1,0,0-2.839ZM34.071,2a1.42,1.42,0,1,0,0,2.839c5.678,0,11.357,5.1,11.357,11.357a1.42,1.42,0,0,0,2.839,0A13.789,13.789,0,0,0,34.071,2Z" transform="translate(0 0.78)"/><path class="c" d="M29.42.042A1.37,1.37,0,0,0,28,1.4a1.472,1.472,0,0,0,1.42,1.479A6.816,6.816,0,0,1,36.458,9.92a1.471,1.471,0,0,0,1.479,1.42A1.37,1.37,0,0,0,39.3,9.92,9.743,9.743,0,0,0,29.42.042Z" transform="translate(11.749 -0.042)"/></g></g></svg>