<svg xmlns="http://www.w3.org/2000/svg" xmlns:xlink="http://www.w3.org/1999/xlink" width="1280" height="276.414" viewBox="0 0 1280 276.414"><defs><style>.a{fill:#161836;}.b{clip-path:url(#a);}.c{fill:#1b1e40;fill-rule:evenodd;}</style><clipPath id="a"><path class="a" d="M0,0H1280V276.414H0Z" transform="translate(-8428 -11274)"/></clipPath></defs><g class="b" transform="translate(8428 11274)"><g transform="translate(0 -282)"><g transform="translate(-8430 -10991.998)"><path class="c" d="M10,0,40,15l2,1V2.18A10.005,10.005,0,0,0,41.76,0L39.7,0A8,8,0,0,1,40,2.18V12.76L14.47,0ZM41.76,24a10,10,0,0,0-5.29-6.76L4,1,2,0V13.82a10,10,0,0,0,5.53,8.94L10,24h4.47L8.42,20.98A8,8,0,0,1,4,13.82V3.24L35.58,19.02A8,8,0,0,1,39.7,24ZM78,24l2.47-1.24A10,10,0,0,0,86,13.82V0L84,1,51.53,17.24A10,10,0,0,0,46.24,24H48.3a8,8,0,0,1,4.12-4.98L84,3.24V13.82a8,8,0,0,1-4.42,7.16L73.53,24ZM78,0,48,15l-2,1V2.18A10.005,10.005,0,0,1,46.241,0L48.3,0A8,8,0,0,0,48,2.18V12.76L73.53,0Z"/></g><g transform="translate(-8342 -10991.998)"><path class="c" d="M10,0,40,15l2,1V2.18A10.005,10.005,0,0,0,41.76,0L39.7,0A8,8,0,0,1,40,2.18V12.76L14.47,0ZM41.76,24a10,10,0,0,0-5.29-6.76L4,1,2,0V13.82a10,10,0,0,0,5.53,8.94L10,24h4.47L8.42,20.98A8,8,0,0,1,4,13.82V3.24L35.58,19.02A8,8,0,0,1,39.7,24ZM78,24l2.47-1.24A10,10,0,0,0,86,13.82V0L84,1,51.53,17.24A10,10,0,0,0,46.24,24H48.3a8,8,0,0,1,4.12-4.98L84,3.24V13.82a8,8,0,0,1-4.42,7.16L73.53,24ZM78,0,48,15l-2,1V2.18A10.005,10.005,0,0,1,46.241,0L48.3,0A8,8,0,0,0,48,2.18V12.76L73.53,0Z"/></g><g transform="translate(-8254 -10991.998)"><path class="c" d="M10,0,40,15l2,1V2.18A10.005,10.005,0,0,0,41.76,0L39.7,0A8,8,0,0,1,40,2.18V12.76L14.47,0ZM41.76,24a10,10,0,0,0-5.29-6.76L4,1,2,0V13.82a10,10,0,0,0,5.53,8.94L10,24h4.47L8.42,20.98A8,8,0,0,1,4,13.82V3.24L35.58,19.02A8,8,0,0,1,39.7,24ZM78,24l2.47-1.24A10,10,0,0,0,86,13.82V0L84,1,51.53,17.24A10,10,0,0,0,46.24,24H48.3a8,8,0,0,1,4.12-4.98L84,3.24V13.82a8,8,0,0,1-4.42,7.16L73.53,24ZM78,0,48,15l-2,1V2.18A10.005,10.005,0,0,1,46.241,0L48.3,0A8,8,0,0,0,48,2.18V12.76L73.53,0Z"/></g><g transform="translate(-8166 -10991.998)"><path class="c" d="M10,0,40,15l2,1V2.18A10.005,10.005,0,0,0,41.76,0L39.7,0A8,8,0,0,1,40,2.18V12.76L14.47,0ZM41.76,24a10,10,0,0,0-5.29-6.76L4,1,2,0V13.82a10,10,0,0,0,5.53,8.94L10,24h4.47L8.42,20.98A8,8,0,0,1,4,13.82V3.24L35.58,19.02A8,8,0,0,1,39.7,24ZM78,24l2.47-1.24A10,10,0,0,0,86,13.82V0L84,1,51.53,17.24A10,10,0,0,0,46.24,24H48.3a8,8,0,0,1,4.12-4.98L84,3.24V13.82a8,8,0,0,1-4.42,7.16L73.53,24ZM78,0,48,15l-2,1V2.18A10.005,10.005,0,0,1,46.241,0L48.3,0A8,8,0,0,0,48,2.18V12.76L73.53,0Z"/></g><g transform="translate(-8078 -10991.998)"><path class="c" d="M10,0,40,15l2,1V2.18A10.005,10.005,0,0,0,41.76,0L39.7,0A8,8,0,0,1,40,2.18V12.76L14.47,0ZM41.76,24a10,10,0,0,0-5.29-6.76L4,1,2,0V13.82a10,10,0,0,0,5.53,8.94L10,24h4.47L8.42,20.98A8,8,0,0,1,4,13.82V3.24L35.58,19.02A8,8,0,0,1,39.7,24ZM78,24l2.47-1.24A10,10,0,0,0,86,13.82V0L84,1,51.53,17.24A10,10,0,0,0,46.24,24H48.3a8,8,0,0,1,4.12-4.98L84,3.24V13.82a8,8,0,0,1-4.42,7.16L73.53,24ZM78,0,48,15l-2,1V2.18A10.005,10.005,0,0,1,46.241,0L48.3,0A8,8,0,0,0,48,2.18V12.76L73.53,0Z"/></g><g transform="translate(-7990 -10991.998)"><path class="c" d="M10,0,40,15l2,1V2.18A10.005,10.005,0,0,0,41.76,0L39.7,0A8,8,0,0,1,40,2.18V12.76L14.47,0ZM41.76,24a10,10,0,0,0-5.29-6.76L4,1,2,0V13.82a10,10,0,0,0,5.53,8.94L10,24h4.47L8.42,20.98A8,8,0,0,1,4,13.82V3.24L35.58,19.02A8,8,0,0,1,39.7,24ZM78,24l2.47-1.24A10,10,0,0,0,86,13.82V0L84,1,51.53,17.24A10,10,0,0,0,46.24,24H48.3a8,8,0,0,1,4.12-4.98L84,3.24V13.82a8,8,0,0,1-4.42,7.16L73.53,24ZM78,0,48,15l-2,1V2.18A10.005,10.005,0,0,1,46.241,0L48.3,0A8,8,0,0,0,48,2.18V12.76L73.53,0Z"/></g><g transform="translate(-7902 -10991.998)"><path class="c" d="M10,0,40,15l2,1V2.18A10.005,10.005,0,0,0,41.76,0L39.7,0A8,8,0,0,1,40,2.18V12.76L14.47,0ZM41.76,24a10,10,0,0,0-5.29-6.76L4,1,2,0V13.82a10,10,0,0,0,5.53,8.94L10,24h4.47L8.42,20.98A8,8,0,0,1,4,13.82V3.24L35.58,19.02A8,8,0,0,1,39.7,24ZM78,24l2.47-1.24A10,10,0,0,0,86,13.82V0L84,1,51.53,17.24A10,10,0,0,0,46.24,24H48.3a8,8,0,0,1,4.12-4.98L84,3.24V13.82a8,8,0,0,1-4.42,7.16L73.53,24ZM78,0,48,15l-2,1V2.18A10.005,10.005,0,0,1,46.241,0L48.3,0A8,8,0,0,0,48,2.18V12.76L73.53,0Z"/></g><g transform="translate(-7814 -10991.998)"><path class="c" d="M10,0,40,15l2,1V2.18A10.005,10.005,0,0,0,41.76,0L39.7,0A8,8,0,0,1,40,2.18V12.76L14.47,0ZM41.76,24a10,10,0,0,0-5.29-6.76L4,1,2,0V13.82a10,10,0,0,0,5.53,8.94L10,24h4.47L8.42,20.98A8,8,0,0,1,4,13.82V3.24L35.58,19.02A8,8,0,0,1,39.7,24ZM78,24l2.47-1.24A10,10,0,0,0,86,13.82V0L84,1,51.53,17.24A10,10,0,0,0,46.24,24H48.3a8,8,0,0,1,4.12-4.98L84,3.24V13.82a8,8,0,0,1-4.42,7.16L73.53,24ZM78,0,48,15l-2,1V2.18A10.005,10.005,0,0,1,46.241,0L48.3,0A8,8,0,0,0,48,2.18V12.76L73.53,0Z"/></g><g transform="translate(-7726 -10991.998)"><path class="c" d="M10,0,40,15l2,1V2.18A10.005,10.005,0,0,0,41.76,0L39.7,0A8,8,0,0,1,40,2.18V12.76L14.47,0ZM41.76,24a10,10,0,0,0-5.29-6.76L4,1,2,0V13.82a10,10,0,0,0,5.53,8.94L10,24h4.47L8.42,20.98A8,8,0,0,1,4,13.82V3.24L35.58,19.02A8,8,0,0,1,39.7,24ZM78,24l2.47-1.24A10,10,0,0,0,86,13.82V0L84,1,51.53,17.24A10,10,0,0,0,46.24,24H48.3a8,8,0,0,1,4.12-4.98L84,3.24V13.82a8,8,0,0,1-4.42,7.16L73.53,24ZM78,0,48,15l-2,1V2.18A10.005,10.005,0,0,1,46.241,0L48.3,0A8,8,0,0,0,48,2.18V12.76L73.53,0Z"/></g><g transform="translate(-7638 -10991.998)"><path class="c" d="M10,0,40,15l2,1V2.18A10.005,10.005,0,0,0,41.76,0L39.7,0A8,8,0,0,1,40,2.18V12.76L14.47,0ZM41.76,24a10,10,0,0,0-5.29-6.76L4,1,2,0V13.82a10,10,0,0,0,5.53,8.94L10,24h4.47L8.42,20.98A8,8,0,0,1,4,13.82V3.24L35.58,19.02A8,8,0,0,1,39.7,24ZM78,24l2.47-1.24A10,10,0,0,0,86,13.82V0L84,1,51.53,17.24A10,10,0,0,0,46.24,24H48.3a8,8,0,0,1,4.12-4.98L84,3.24V13.82a8,8,0,0,1-4.42,7.16L73.53,24ZM78,0,48,15l-2,1V2.18A10.005,10.005,0,0,1,46.241,0L48.3,0A8,8,0,0,0,48,2.18V12.76L73.53,0Z"/></g><g transform="translate(-7550 -10991.998)"><path class="c" d="M10,0,40,15l2,1V2.18A10.005,10.005,0,0,0,41.76,0L39.7,0A8,8,0,0,1,40,2.18V12.76L14.47,0ZM41.76,24a10,10,0,0,0-5.29-6.76L4,1,2,0V13.82a10,10,0,0,0,5.53,8.94L10,24h4.47L8.42,20.98A8,8,0,0,1,4,13.82V3.24L35.58,19.02A8,8,0,0,1,39.7,24ZM78,24l2.47-1.24A10,10,0,0,0,86,13.82V0L84,1,51.53,17.24A10,10,0,0,0,46.24,24H48.3a8,8,0,0,1,4.12-4.98L84,3.24V13.82a8,8,0,0,1-4.42,7.16L73.53,24ZM78,0,48,15l-2,1V2.18A10.005,10.005,0,0,1,46.241,0L48.3,0A8,8,0,0,0,48,2.18V12.76L73.53,0Z"/></g><g transform="translate(-7462 -10991.998)"><path class="c" d="M10,0,40,15l2,1V2.18A10.005,10.005,0,0,0,41.76,0L39.7,0A8,8,0,0,1,40,2.18V12.76L14.47,0ZM41.76,24a10,10,0,0,0-5.29-6.76L4,1,2,0V13.82a10,10,0,0,0,5.53,8.94L10,24h4.47L8.42,20.98A8,8,0,0,1,4,13.82V3.24L35.58,19.02A8,8,0,0,1,39.7,24ZM78,24l2.47-1.24A10,10,0,0,0,86,13.82V0L84,1,51.53,17.24A10,10,0,0,0,46.24,24H48.3a8,8,0,0,1,4.12-4.98L84,3.24V13.82a8,8,0,0,1-4.42,7.16L73.53,24ZM78,0,48,15l-2,1V2.18A10.005,10.005,0,0,1,46.241,0L48.3,0A8,8,0,0,0,48,2.18V12.76L73.53,0Z"/></g><g transform="translate(-7374 -10991.998)"><path class="c" d="M10,0,40,15l2,1V2.18A10.005,10.005,0,0,0,41.76,0L39.7,0A8,8,0,0,1,40,2.18V12.76L14.47,0ZM41.76,24a10,10,0,0,0-5.29-6.76L4,1,2,0V13.82a10,10,0,0,0,5.53,8.94L10,24h4.47L8.42,20.98A8,8,0,0,1,4,13.82V3.24L35.58,19.02A8,8,0,0,1,39.7,24ZM78,24l2.47-1.24A10,10,0,0,0,86,13.82V0L84,1,51.53,17.24A10,10,0,0,0,46.24,24H48.3a8,8,0,0,1,4.12-4.98L84,3.24V13.82a8,8,0,0,1-4.42,7.16L73.53,24ZM78,0,48,15l-2,1V2.18A10.005,10.005,0,0,1,46.241,0L48.3,0A8,8,0,0,0,48,2.18V12.76L73.53,0Z"/></g><g transform="translate(-7286 -10991.998)"><path class="c" d="M10,0,40,15l2,1V2.18A10.005,10.005,0,0,0,41.76,0L39.7,0A8,8,0,0,1,40,2.18V12.76L14.47,0ZM41.76,24a10,10,0,0,0-5.29-6.76L4,1,2,0V13.82a10,10,0,0,0,5.53,8.94L10,24h4.47L8.42,20.98A8,8,0,0,1,4,13.82V3.24L35.58,19.02A8,8,0,0,1,39.7,24ZM78,24l2.47-1.24A10,10,0,0,0,86,13.82V0L84,1,51.53,17.24A10,10,0,0,0,46.24,24H48.3a8,8,0,0,1,4.12-4.98L84,3.24V13.82a8,8,0,0,1-4.42,7.16L73.53,24ZM78,0,48,15l-2,1V2.18A10.005,10.005,0,0,1,46.241,0L48.3,0A8,8,0,0,0,48,2.18V12.76L73.53,0Z"/></g><g transform="translate(-7198 -10991.998)"><path class="c" d="M10,0,40,15l2,1V2.18A10.005,10.005,0,0,0,41.76,0L39.7,0A8,8,0,0,1,40,2.18V12.76L14.47,0ZM41.76,24a10,10,0,0,0-5.29-6.76L4,1,2,0V13.82a10,10,0,0,0,5.53,8.94L10,24h4.47L8.42,20.98A8,8,0,0,1,4,13.82V3.24L35.58,19.02A8,8,0,0,1,39.7,24ZM78,24l2.47-1.24A10,10,0,0,0,86,13.82V0L84,1,51.53,17.24A10,10,0,0,0,46.24,24H48.3a8,8,0,0,1,4.12-4.98L84,3.24V13.82a8,8,0,0,1-4.42,7.16L73.53,24ZM78,0,48,15l-2,1V2.18A10.005,10.005,0,0,1,46.241,0L48.3,0A8,8,0,0,0,48,2.18V12.76L73.53,0Z"/></g><g transform="translate(-8430 -10967.998)"><path class="c" d="M10,0,40,15l2,1V2.18A10.005,10.005,0,0,0,41.76,0L39.7,0A8,8,0,0,1,40,2.18V12.76L14.47,0ZM41.76,24a10,10,0,0,0-5.29-6.76L4,1,2,0V13.82a10,10,0,0,0,5.53,8.94L10,24h4.47L8.42,20.98A8,8,0,0,1,4,13.82V3.24L35.58,19.02A8,8,0,0,1,39.7,24ZM78,24l2.47-1.24A10,10,0,0,0,86,13.82V0L84,1,51.53,17.24A10,10,0,0,0,46.24,24H48.3a8,8,0,0,1,4.12-4.98L84,3.24V13.82a8,8,0,0,1-4.42,7.16L73.53,24ZM78,0,48,15l-2,1V2.18A10.005,10.005,0,0,1,46.241,0L48.3,0A8,8,0,0,0,48,2.18V12.76L73.53,0Z"/></g><g transform="translate(-8342 -10967.998)"><path class="c" d="M10,0,40,15l2,1V2.18A10.005,10.005,0,0,0,41.76,0L39.7,0A8,8,0,0,1,40,2.18V12.76L14.47,0ZM41.76,24a10,10,0,0,0-5.29-6.76L4,1,2,0V13.82a10,10,0,0,0,5.53,8.94L10,24h4.47L8.42,20.98A8,8,0,0,1,4,13.82V3.24L35.58,19.02A8,8,0,0,1,39.7,24ZM78,24l2.47-1.24A10,10,0,0,0,86,13.82V0L84,1,51.53,17.24A10,10,0,0,0,46.24,24H48.3a8,8,0,0,1,4.12-4.98L84,3.24V13.82a8,8,0,0,1-4.42,7.16L73.53,24ZM78,0,48,15l-2,1V2.18A10.005,10.005,0,0,1,46.241,0L48.3,0A8,8,0,0,0,48,2.18V12.76L73.53,0Z"/></g><g transform="translate(-8254 -10967.998)"><path class="c" d="M10,0,40,15l2,1V2.18A10.005,10.005,0,0,0,41.76,0L39.7,0A8,8,0,0,1,40,2.18V12.76L14.47,0ZM41.76,24a10,10,0,0,0-5.29-6.76L4,1,2,0V13.82a10,10,0,0,0,5.53,8.94L10,24h4.47L8.42,20.98A8,8,0,0,1,4,13.82V3.24L35.58,19.02A8,8,0,0,1,39.7,24ZM78,24l2.47-1.24A10,10,0,0,0,86,13.82V0L84,1,51.53,17.24A10,10,0,0,0,46.24,24H48.3a8,8,0,0,1,4.12-4.98L84,3.24V13.82a8,8,0,0,1-4.42,7.16L73.53,24ZM78,0,48,15l-2,1V2.18A10.005,10.005,0,0,1,46.241,0L48.3,0A8,8,0,0,0,48,2.18V12.76L73.53,0Z"/></g><g transform="translate(-8166 -10967.998)"><path class="c" d="M10,0,40,15l2,1V2.18A10.005,10.005,0,0,0,41.76,0L39.7,0A8,8,0,0,1,40,2.18V12.76L14.47,0ZM41.76,24a10,10,0,0,0-5.29-6.76L4,1,2,0V13.82a10,10,0,0,0,5.53,8.94L10,24h4.47L8.42,20.98A8,8,0,0,1,4,13.82V3.24L35.58,19.02A8,8,0,0,1,39.7,24ZM78,24l2.47-1.24A10,10,0,0,0,86,13.82V0L84,1,51.53,17.24A10,10,0,0,0,46.24,24H48.3a8,8,0,0,1,4.12-4.98L84,3.24V13.82a8,8,0,0,1-4.42,7.16L73.53,24ZM78,0,48,15l-2,1V2.18A10.005,10.005,0,0,1,46.241,0L48.3,0A8,8,0,0,0,48,2.18V12.76L73.53,0Z"/></g><g transform="translate(-8078 -10967.998)"><path class="c" d="M10,0,40,15l2,1V2.18A10.005,10.005,0,0,0,41.76,0L39.7,0A8,8,0,0,1,40,2.18V12.76L14.47,0ZM41.76,24a10,10,0,0,0-5.29-6.76L4,1,2,0V13.82a10,10,0,0,0,5.53,8.94L10,24h4.47L8.42,20.98A8,8,0,0,1,4,13.82V3.24L35.58,19.02A8,8,0,0,1,39.7,24ZM78,24l2.47-1.24A10,10,0,0,0,86,13.82V0L84,1,51.53,17.24A10,10,0,0,0,46.24,24H48.3a8,8,0,0,1,4.12-4.98L84,3.24V13.82a8,8,0,0,1-4.42,7.16L73.53,24ZM78,0,48,15l-2,1V2.18A10.005,10.005,0,0,1,46.241,0L48.3,0A8,8,0,0,0,48,2.18V12.76L73.53,0Z"/></g><g transform="translate(-7990 -10967.998)"><path class="c" d="M10,0,40,15l2,1V2.18A10.005,10.005,0,0,0,41.76,0L39.7,0A8,8,0,0,1,40,2.18V12.76L14.47,0ZM41.76,24a10,10,0,0,0-5.29-6.76L4,1,2,0V13.82a10,10,0,0,0,5.53,8.94L10,24h4.47L8.42,20.98A8,8,0,0,1,4,13.82V3.24L35.58,19.02A8,8,0,0,1,39.7,24ZM78,24l2.47-1.24A10,10,0,0,0,86,13.82V0L84,1,51.53,17.24A10,10,0,0,0,46.24,24H48.3a8,8,0,0,1,4.12-4.98L84,3.24V13.82a8,8,0,0,1-4.42,7.16L73.53,24ZM78,0,48,15l-2,1V2.18A10.005,10.005,0,0,1,46.241,0L48.3,0A8,8,0,0,0,48,2.18V12.76L73.53,0Z"/></g><g transform="translate(-7902 -10967.998)"><path class="c" d="M10,0,40,15l2,1V2.18A10.005,10.005,0,0,0,41.76,0L39.7,0A8,8,0,0,1,40,2.18V12.76L14.47,0ZM41.76,24a10,10,0,0,0-5.29-6.76L4,1,2,0V13.82a10,10,0,0,0,5.53,8.94L10,24h4.47L8.42,20.98A8,8,0,0,1,4,13.82V3.24L35.58,19.02A8,8,0,0,1,39.7,24ZM78,24l2.47-1.24A10,10,0,0,0,86,13.82V0L84,1,51.53,17.24A10,10,0,0,0,46.24,24H48.3a8,8,0,0,1,4.12-4.98L84,3.24V13.82a8,8,0,0,1-4.42,7.16L73.53,24ZM78,0,48,15l-2,1V2.18A10.005,10.005,0,0,1,46.241,0L48.3,0A8,8,0,0,0,48,2.18V12.76L73.53,0Z"/></g><g transform="translate(-7814 -10967.998)"><path class="c" d="M10,0,40,15l2,1V2.18A10.005,10.005,0,0,0,41.76,0L39.7,0A8,8,0,0,1,40,2.18V12.76L14.47,0ZM41.76,24a10,10,0,0,0-5.29-6.76L4,1,2,0V13.82a10,10,0,0,0,5.53,8.94L10,24h4.47L8.42,20.98A8,8,0,0,1,4,13.82V3.24L35.58,19.02A8,8,0,0,1,39.7,24ZM78,24l2.47-1.24A10,10,0,0,0,86,13.82V0L84,1,51.53,17.24A10,10,0,0,0,46.24,24H48.3a8,8,0,0,1,4.12-4.98L84,3.24V13.82a8,8,0,0,1-4.42,7.16L73.53,24ZM78,0,48,15l-2,1V2.18A10.005,10.005,0,0,1,46.241,0L48.3,0A8,8,0,0,0,48,2.18V12.76L73.53,0Z"/></g><g transform="translate(-7726 -10967.998)"><path class="c" d="M10,0,40,15l2,1V2.18A10.005,10.005,0,0,0,41.76,0L39.7,0A8,8,0,0,1,40,2.18V12.76L14.47,0ZM41.76,24a10,10,0,0,0-5.29-6.76L4,1,2,0V13.82a10,10,0,0,0,5.53,8.94L10,24h4.47L8.42,20.98A8,8,0,0,1,4,13.82V3.24L35.58,19.02A8,8,0,0,1,39.7,24ZM78,24l2.47-1.24A10,10,0,0,0,86,13.82V0L84,1,51.53,17.24A10,10,0,0,0,46.24,24H48.3a8,8,0,0,1,4.12-4.98L84,3.24V13.82a8,8,0,0,1-4.42,7.16L73.53,24ZM78,0,48,15l-2,1V2.18A10.005,10.005,0,0,1,46.241,0L48.3,0A8,8,0,0,0,48,2.18V12.76L73.53,0Z"/></g><g transform="translate(-7638 -10967.998)"><path class="c" d="M10,0,40,15l2,1V2.18A10.005,10.005,0,0,0,41.76,0L39.7,0A8,8,0,0,1,40,2.18V12.76L14.47,0ZM41.76,24a10,10,0,0,0-5.29-6.76L4,1,2,0V13.82a10,10,0,0,0,5.53,8.94L10,24h4.47L8.42,20.98A8,8,0,0,1,4,13.82V3.24L35.58,19.02A8,8,0,0,1,39.7,24ZM78,24l2.47-1.24A10,10,0,0,0,86,13.82V0L84,1,51.53,17.24A10,10,0,0,0,46.24,24H48.3a8,8,0,0,1,4.12-4.98L84,3.24V13.82a8,8,0,0,1-4.42,7.16L73.53,24ZM78,0,48,15l-2,1V2.18A10.005,10.005,0,0,1,46.241,0L48.3,0A8,8,0,0,0,48,2.18V12.76L73.53,0Z"/></g><g transform="translate(-7550 -10967.998)"><path class="c" d="M10,0,40,15l2,1V2.18A10.005,10.005,0,0,0,41.76,0L39.7,0A8,8,0,0,1,40,2.18V12.76L14.47,0ZM41.76,24a10,10,0,0,0-5.29-6.76L4,1,2,0V13.82a10,10,0,0,0,5.53,8.94L10,24h4.47L8.42,20.98A8,8,0,0,1,4,13.82V3.24L35.58,19.02A8,8,0,0,1,39.7,24ZM78,24l2.47-1.24A10,10,0,0,0,86,13.82V0L84,1,51.53,17.24A10,10,0,0,0,46.24,24H48.3a8,8,0,0,1,4.12-4.98L84,3.24V13.82a8,8,0,0,1-4.42,7.16L73.53,24ZM78,0,48,15l-2,1V2.18A10.005,10.005,0,0,1,46.241,0L48.3,0A8,8,0,0,0,48,2.18V12.76L73.53,0Z"/></g><g transform="translate(-7462 -10967.998)"><path class="c" d="M10,0,40,15l2,1V2.18A10.005,10.005,0,0,0,41.76,0L39.7,0A8,8,0,0,1,40,2.18V12.76L14.47,0ZM41.76,24a10,10,0,0,0-5.29-6.76L4,1,2,0V13.82a10,10,0,0,0,5.53,8.94L10,24h4.47L8.42,20.98A8,8,0,0,1,4,13.82V3.24L35.58,19.02A8,8,0,0,1,39.7,24ZM78,24l2.47-1.24A10,10,0,0,0,86,13.82V0L84,1,51.53,17.24A10,10,0,0,0,46.24,24H48.3a8,8,0,0,1,4.12-4.98L84,3.24V13.82a8,8,0,0,1-4.42,7.16L73.53,24ZM78,0,48,15l-2,1V2.18A10.005,10.005,0,0,1,46.241,0L48.3,0A8,8,0,0,0,48,2.18V12.76L73.53,0Z"/></g><g transform="translate(-7374 -10967.998)"><path class="c" d="M10,0,40,15l2,1V2.18A10.005,10.005,0,0,0,41.76,0L39.7,0A8,8,0,0,1,40,2.18V12.76L14.47,0ZM41.76,24a10,10,0,0,0-5.29-6.76L4,1,2,0V13.82a10,10,0,0,0,5.53,8.94L10,24h4.47L8.42,20.98A8,8,0,0,1,4,13.82V3.24L35.58,19.02A8,8,0,0,1,39.7,24ZM78,24l2.47-1.24A10,10,0,0,0,86,13.82V0L84,1,51.53,17.24A10,10,0,0,0,46.24,24H48.3a8,8,0,0,1,4.12-4.98L84,3.24V13.82a8,8,0,0,1-4.42,7.16L73.53,24ZM78,0,48,15l-2,1V2.18A10.005,10.005,0,0,1,46.241,0L48.3,0A8,8,0,0,0,48,2.18V12.76L73.53,0Z"/></g><g transform="translate(-7286 -10967.998)"><path class="c" d="M10,0,40,15l2,1V2.18A10.005,10.005,0,0,0,41.76,0L39.7,0A8,8,0,0,1,40,2.18V12.76L14.47,0ZM41.76,24a10,10,0,0,0-5.29-6.76L4,1,2,0V13.82a10,10,0,0,0,5.53,8.94L10,24h4.47L8.42,20.98A8,8,0,0,1,4,13.82V3.24L35.58,19.02A8,8,0,0,1,39.7,24ZM78,24l2.47-1.24A10,10,0,0,0,86,13.82V0L84,1,51.53,17.24A10,10,0,0,0,46.24,24H48.3a8,8,0,0,1,4.12-4.98L84,3.24V13.82a8,8,0,0,1-4.42,7.16L73.53,24ZM78,0,48,15l-2,1V2.18A10.005,10.005,0,0,1,46.241,0L48.3,0A8,8,0,0,0,48,2.18V12.76L73.53,0Z"/></g><g transform="translate(-7198 -10967.998)"><path class="c" d="M10,0,40,15l2,1V2.18A10.005,10.005,0,0,0,41.76,0L39.7,0A8,8,0,0,1,40,2.18V12.76L14.47,0ZM41.76,24a10,10,0,0,0-5.29-6.76L4,1,2,0V13.82a10,10,0,0,0,5.53,8.94L10,24h4.47L8.42,20.98A8,8,0,0,1,4,13.82V3.24L35.58,19.02A8,8,0,0,1,39.7,24ZM78,24l2.47-1.24A10,10,0,0,0,86,13.82V0L84,1,51.53,17.24A10,10,0,0,0,46.24,24H48.3a8,8,0,0,1,4.12-4.98L84,3.24V13.82a8,8,0,0,1-4.42,7.16L73.53,24ZM78,0,48,15l-2,1V2.18A10.005,10.005,0,0,1,46.241,0L48.3,0A8,8,0,0,0,48,2.18V12.76L73.53,0Z"/></g><g transform="translate(-8430 -10943.998)"><path class="c" d="M10,0,40,15l2,1V2.18A10.005,10.005,0,0,0,41.76,0L39.7,0A8,8,0,0,1,40,2.18V12.76L14.47,0ZM41.76,24a10,10,0,0,0-5.29-6.76L4,1,2,0V13.82a10,10,0,0,0,5.53,8.94L10,24h4.47L8.42,20.98A8,8,0,0,1,4,13.82V3.24L35.58,19.02A8,8,0,0,1,39.7,24ZM78,24l2.47-1.24A10,10,0,0,0,86,13.82V0L84,1,51.53,17.24A10,10,0,0,0,46.24,24H48.3a8,8,0,0,1,4.12-4.98L84,3.24V13.82a8,8,0,0,1-4.42,7.16L73.53,24ZM78,0,48,15l-2,1V2.18A10.005,10.005,0,0,1,46.241,0L48.3,0A8,8,0,0,0,48,2.18V12.76L73.53,0Z"/></g><g transform="translate(-8342 -10943.998)"><path class="c" d="M10,0,40,15l2,1V2.18A10.005,10.005,0,0,0,41.76,0L39.7,0A8,8,0,0,1,40,2.18V12.76L14.47,0ZM41.76,24a10,10,0,0,0-5.29-6.76L4,1,2,0V13.82a10,10,0,0,0,5.53,8.94L10,24h4.47L8.42,20.98A8,8,0,0,1,4,13.82V3.24L35.58,19.02A8,8,0,0,1,39.7,24ZM78,24l2.47-1.24A10,10,0,0,0,86,13.82V0L84,1,51.53,17.24A10,10,0,0,0,46.24,24H48.3a8,8,0,0,1,4.12-4.98L84,3.24V13.82a8,8,0,0,1-4.42,7.16L73.53,24ZM78,0,48,15l-2,1V2.18A10.005,10.005,0,0,1,46.241,0L48.3,0A8,8,0,0,0,48,2.18V12.76L73.53,0Z"/></g><g transform="translate(-8254 -10943.998)"><path class="c" d="M10,0,40,15l2,1V2.18A10.005,10.005,0,0,0,41.76,0L39.7,0A8,8,0,0,1,40,2.18V12.76L14.47,0ZM41.76,24a10,10,0,0,0-5.29-6.76L4,1,2,0V13.82a10,10,0,0,0,5.53,8.94L10,24h4.47L8.42,20.98A8,8,0,0,1,4,13.82V3.24L35.58,19.02A8,8,0,0,1,39.7,24ZM78,24l2.47-1.24A10,10,0,0,0,86,13.82V0L84,1,51.53,17.24A10,10,0,0,0,46.24,24H48.3a8,8,0,0,1,4.12-4.98L84,3.24V13.82a8,8,0,0,1-4.42,7.16L73.53,24ZM78,0,48,15l-2,1V2.18A10.005,10.005,0,0,1,46.241,0L48.3,0A8,8,0,0,0,48,2.18V12.76L73.53,0Z"/></g><g transform="translate(-8166 -10943.998)"><path class="c" d="M10,0,40,15l2,1V2.18A10.005,10.005,0,0,0,41.76,0L39.7,0A8,8,0,0,1,40,2.18V12.76L14.47,0ZM41.76,24a10,10,0,0,0-5.29-6.76L4,1,2,0V13.82a10,10,0,0,0,5.53,8.94L10,24h4.47L8.42,20.98A8,8,0,0,1,4,13.82V3.24L35.58,19.02A8,8,0,0,1,39.7,24ZM78,24l2.47-1.24A10,10,0,0,0,86,13.82V0L84,1,51.53,17.24A10,10,0,0,0,46.24,24H48.3a8,8,0,0,1,4.12-4.98L84,3.24V13.82a8,8,0,0,1-4.42,7.16L73.53,24ZM78,0,48,15l-2,1V2.18A10.005,10.005,0,0,1,46.241,0L48.3,0A8,8,0,0,0,48,2.18V12.76L73.53,0Z"/></g><g transform="translate(-8078 -10943.998)"><path class="c" d="M10,0,40,15l2,1V2.18A10.005,10.005,0,0,0,41.76,0L39.7,0A8,8,0,0,1,40,2.18V12.76L14.47,0ZM41.76,24a10,10,0,0,0-5.29-6.76L4,1,2,0V13.82a10,10,0,0,0,5.53,8.94L10,24h4.47L8.42,20.98A8,8,0,0,1,4,13.82V3.24L35.58,19.02A8,8,0,0,1,39.7,24ZM78,24l2.47-1.24A10,10,0,0,0,86,13.82V0L84,1,51.53,17.24A10,10,0,0,0,46.24,24H48.3a8,8,0,0,1,4.12-4.98L84,3.24V13.82a8,8,0,0,1-4.42,7.16L73.53,24ZM78,0,48,15l-2,1V2.18A10.005,10.005,0,0,1,46.241,0L48.3,0A8,8,0,0,0,48,2.18V12.76L73.53,0Z"/></g><g transform="translate(-7990 -10943.998)"><path class="c" d="M10,0,40,15l2,1V2.18A10.005,10.005,0,0,0,41.76,0L39.7,0A8,8,0,0,1,40,2.18V12.76L14.47,0ZM41.76,24a10,10,0,0,0-5.29-6.76L4,1,2,0V13.82a10,10,0,0,0,5.53,8.94L10,24h4.47L8.42,20.98A8,8,0,0,1,4,13.82V3.24L35.58,19.02A8,8,0,0,1,39.7,24ZM78,24l2.47-1.24A10,10,0,0,0,86,13.82V0L84,1,51.53,17.24A10,10,0,0,0,46.24,24H48.3a8,8,0,0,1,4.12-4.98L84,3.24V13.82a8,8,0,0,1-4.42,7.16L73.53,24ZM78,0,48,15l-2,1V2.18A10.005,10.005,0,0,1,46.241,0L48.3,0A8,8,0,0,0,48,2.18V12.76L73.53,0Z"/></g><g transform="translate(-7902 -10943.998)"><path class="c" d="M10,0,40,15l2,1V2.18A10.005,10.005,0,0,0,41.76,0L39.7,0A8,8,0,0,1,40,2.18V12.76L14.47,0ZM41.76,24a10,10,0,0,0-5.29-6.76L4,1,2,0V13.82a10,10,0,0,0,5.53,8.94L10,24h4.47L8.42,20.98A8,8,0,0,1,4,13.82V3.24L35.58,19.02A8,8,0,0,1,39.7,24ZM78,24l2.47-1.24A10,10,0,0,0,86,13.82V0L84,1,51.53,17.24A10,10,0,0,0,46.24,24H48.3a8,8,0,0,1,4.12-4.98L84,3.24V13.82a8,8,0,0,1-4.42,7.16L73.53,24ZM78,0,48,15l-2,1V2.18A10.005,10.005,0,0,1,46.241,0L48.3,0A8,8,0,0,0,48,2.18V12.76L73.53,0Z"/></g><g transform="translate(-7814 -10943.998)"><path class="c" d="M10,0,40,15l2,1V2.18A10.005,10.005,0,0,0,41.76,0L39.7,0A8,8,0,0,1,40,2.18V12.76L14.47,0ZM41.76,24a10,10,0,0,0-5.29-6.76L4,1,2,0V13.82a10,10,0,0,0,5.53,8.94L10,24h4.47L8.42,20.98A8,8,0,0,1,4,13.82V3.24L35.58,19.02A8,8,0,0,1,39.7,24ZM78,24l2.47-1.24A10,10,0,0,0,86,13.82V0L84,1,51.53,17.24A10,10,0,0,0,46.24,24H48.3a8,8,0,0,1,4.12-4.98L84,3.24V13.82a8,8,0,0,1-4.42,7.16L73.53,24ZM78,0,48,15l-2,1V2.18A10.005,10.005,0,0,1,46.241,0L48.3,0A8,8,0,0,0,48,2.18V12.76L73.53,0Z"/></g><g transform="translate(-7726 -10943.998)"><path class="c" d="M10,0,40,15l2,1V2.18A10.005,10.005,0,0,0,41.76,0L39.7,0A8,8,0,0,1,40,2.18V12.76L14.47,0ZM41.76,24a10,10,0,0,0-5.29-6.76L4,1,2,0V13.82a10,10,0,0,0,5.53,8.94L10,24h4.47L8.42,20.98A8,8,0,0,1,4,13.82V3.24L35.58,19.02A8,8,0,0,1,39.7,24ZM78,24l2.47-1.24A10,10,0,0,0,86,13.82V0L84,1,51.53,17.24A10,10,0,0,0,46.24,24H48.3a8,8,0,0,1,4.12-4.98L84,3.24V13.82a8,8,0,0,1-4.42,7.16L73.53,24ZM78,0,48,15l-2,1V2.18A10.005,10.005,0,0,1,46.241,0L48.3,0A8,8,0,0,0,48,2.18V12.76L73.53,0Z"/></g><g transform="translate(-7638 -10943.998)"><path class="c" d="M10,0,40,15l2,1V2.18A10.005,10.005,0,0,0,41.76,0L39.7,0A8,8,0,0,1,40,2.18V12.76L14.47,0ZM41.76,24a10,10,0,0,0-5.29-6.76L4,1,2,0V13.82a10,10,0,0,0,5.53,8.94L10,24h4.47L8.42,20.98A8,8,0,0,1,4,13.82V3.24L35.58,19.02A8,8,0,0,1,39.7,24ZM78,24l2.47-1.24A10,10,0,0,0,86,13.82V0L84,1,51.53,17.24A10,10,0,0,0,46.24,24H48.3a8,8,0,0,1,4.12-4.98L84,3.24V13.82a8,8,0,0,1-4.42,7.16L73.53,24ZM78,0,48,15l-2,1V2.18A10.005,10.005,0,0,1,46.241,0L48.3,0A8,8,0,0,0,48,2.18V12.76L73.53,0Z"/></g><g transform="translate(-7550 -10943.998)"><path class="c" d="M10,0,40,15l2,1V2.18A10.005,10.005,0,0,0,41.76,0L39.7,0A8,8,0,0,1,40,2.18V12.76L14.47,0ZM41.76,24a10,10,0,0,0-5.29-6.76L4,1,2,0V13.82a10,10,0,0,0,5.53,8.94L10,24h4.47L8.42,20.98A8,8,0,0,1,4,13.82V3.24L35.58,19.02A8,8,0,0,1,39.7,24ZM78,24l2.47-1.24A10,10,0,0,0,86,13.82V0L84,1,51.53,17.24A10,10,0,0,0,46.24,24H48.3a8,8,0,0,1,4.12-4.98L84,3.24V13.82a8,8,0,0,1-4.42,7.16L73.53,24ZM78,0,48,15l-2,1V2.18A10.005,10.005,0,0,1,46.241,0L48.3,0A8,8,0,0,0,48,2.18V12.76L73.53,0Z"/></g><g transform="translate(-7462 -10943.998)"><path class="c" d="M10,0,40,15l2,1V2.18A10.005,10.005,0,0,0,41.76,0L39.7,0A8,8,0,0,1,40,2.18V12.76L14.47,0ZM41.76,24a10,10,0,0,0-5.29-6.76L4,1,2,0V13.82a10,10,0,0,0,5.53,8.94L10,24h4.47L8.42,20.98A8,8,0,0,1,4,13.82V3.24L35.58,19.02A8,8,0,0,1,39.7,24ZM78,24l2.47-1.24A10,10,0,0,0,86,13.82V0L84,1,51.53,17.24A10,10,0,0,0,46.24,24H48.3a8,8,0,0,1,4.12-4.98L84,3.24V13.82a8,8,0,0,1-4.42,7.16L73.53,24ZM78,0,48,15l-2,1V2.18A10.005,10.005,0,0,1,46.241,0L48.3,0A8,8,0,0,0,48,2.18V12.76L73.53,0Z"/></g><g transform="translate(-7374 -10943.998)"><path class="c" d="M10,0,40,15l2,1V2.18A10.005,10.005,0,0,0,41.76,0L39.7,0A8,8,0,0,1,40,2.18V12.76L14.47,0ZM41.76,24a10,10,0,0,0-5.29-6.76L4,1,2,0V13.82a10,10,0,0,0,5.53,8.94L10,24h4.47L8.42,20.98A8,8,0,0,1,4,13.82V3.24L35.58,19.02A8,8,0,0,1,39.7,24ZM78,24l2.47-1.24A10,10,0,0,0,86,13.82V0L84,1,51.53,17.24A10,10,0,0,0,46.24,24H48.3a8,8,0,0,1,4.12-4.98L84,3.24V13.82a8,8,0,0,1-4.42,7.16L73.53,24ZM78,0,48,15l-2,1V2.18A10.005,10.005,0,0,1,46.241,0L48.3,0A8,8,0,0,0,48,2.18V12.76L73.53,0Z"/></g><g transform="translate(-7286 -10943.998)"><path class="c" d="M10,0,40,15l2,1V2.18A10.005,10.005,0,0,0,41.76,0L39.7,0A8,8,0,0,1,40,2.18V12.76L14.47,0ZM41.76,24a10,10,0,0,0-5.29-6.76L4,1,2,0V13.82a10,10,0,0,0,5.53,8.94L10,24h4.47L8.42,20.98A8,8,0,0,1,4,13.82V3.24L35.58,19.02A8,8,0,0,1,39.7,24ZM78,24l2.47-1.24A10,10,0,0,0,86,13.82V0L84,1,51.53,17.24A10,10,0,0,0,46.24,24H48.3a8,8,0,0,1,4.12-4.98L84,3.24V13.82a8,8,0,0,1-4.42,7.16L73.53,24ZM78,0,48,15l-2,1V2.18A10.005,10.005,0,0,1,46.241,0L48.3,0A8,8,0,0,0,48,2.18V12.76L73.53,0Z"/></g><g transform="translate(-7198 -10943.998)"><path class="c" d="M10,0,40,15l2,1V2.18A10.005,10.005,0,0,0,41.76,0L39.7,0A8,8,0,0,1,40,2.18V12.76L14.47,0ZM41.76,24a10,10,0,0,0-5.29-6.76L4,1,2,0V13.82a10,10,0,0,0,5.53,8.94L10,24h4.47L8.42,20.98A8,8,0,0,1,4,13.82V3.24L35.58,19.02A8,8,0,0,1,39.7,24ZM78,24l2.47-1.24A10,10,0,0,0,86,13.82V0L84,1,51.53,17.24A10,10,0,0,0,46.24,24H48.3a8,8,0,0,1,4.12-4.98L84,3.24V13.82a8,8,0,0,1-4.42,7.16L73.53,24ZM78,0,48,15l-2,1V2.18A10.005,10.005,0,0,1,46.241,0L48.3,0A8,8,0,0,0,48,2.18V12.76L73.53,0Z"/></g><g transform="translate(-8430 -10919.998)"><path class="c" d="M10,0,40,15l2,1V2.18A10.005,10.005,0,0,0,41.76,0L39.7,0A8,8,0,0,1,40,2.18V12.76L14.47,0ZM41.76,24a10,10,0,0,0-5.29-6.76L4,1,2,0V13.82a10,10,0,0,0,5.53,8.94L10,24h4.47L8.42,20.98A8,8,0,0,1,4,13.82V3.24L35.58,19.02A8,8,0,0,1,39.7,24ZM78,24l2.47-1.24A10,10,0,0,0,86,13.82V0L84,1,51.53,17.24A10,10,0,0,0,46.24,24H48.3a8,8,0,0,1,4.12-4.98L84,3.24V13.82a8,8,0,0,1-4.42,7.16L73.53,24ZM78,0,48,15l-2,1V2.18A10.005,10.005,0,0,1,46.241,0L48.3,0A8,8,0,0,0,48,2.18V12.76L73.53,0Z"/></g><g transform="translate(-8342 -10919.998)"><path class="c" d="M10,0,40,15l2,1V2.18A10.005,10.005,0,0,0,41.76,0L39.7,0A8,8,0,0,1,40,2.18V12.76L14.47,0ZM41.76,24a10,10,0,0,0-5.29-6.76L4,1,2,0V13.82a10,10,0,0,0,5.53,8.94L10,24h4.47L8.42,20.98A8,8,0,0,1,4,13.82V3.24L35.58,19.02A8,8,0,0,1,39.7,24ZM78,24l2.47-1.24A10,10,0,0,0,86,13.82V0L84,1,51.53,17.24A10,10,0,0,0,46.24,24H48.3a8,8,0,0,1,4.12-4.98L84,3.24V13.82a8,8,0,0,1-4.42,7.16L73.53,24ZM78,0,48,15l-2,1V2.18A10.005,10.005,0,0,1,46.241,0L48.3,0A8,8,0,0,0,48,2.18V12.76L73.53,0Z"/></g><g transform="translate(-8254 -10919.998)"><path class="c" d="M10,0,40,15l2,1V2.18A10.005,10.005,0,0,0,41.76,0L39.7,0A8,8,0,0,1,40,2.18V12.76L14.47,0ZM41.76,24a10,10,0,0,0-5.29-6.76L4,1,2,0V13.82a10,10,0,0,0,5.53,8.94L10,24h4.47L8.42,20.98A8,8,0,0,1,4,13.82V3.24L35.58,19.02A8,8,0,0,1,39.7,24ZM78,24l2.47-1.24A10,10,0,0,0,86,13.82V0L84,1,51.53,17.24A10,10,0,0,0,46.24,24H48.3a8,8,0,0,1,4.12-4.98L84,3.24V13.82a8,8,0,0,1-4.42,7.16L73.53,24ZM78,0,48,15l-2,1V2.18A10.005,10.005,0,0,1,46.241,0L48.3,0A8,8,0,0,0,48,2.18V12.76L73.53,0Z"/></g><g transform="translate(-8166 -10919.998)"><path class="c" d="M10,0,40,15l2,1V2.18A10.005,10.005,0,0,0,41.76,0L39.7,0A8,8,0,0,1,40,2.18V12.76L14.47,0ZM41.76,24a10,10,0,0,0-5.29-6.76L4,1,2,0V13.82a10,10,0,0,0,5.53,8.94L10,24h4.47L8.42,20.98A8,8,0,0,1,4,13.82V3.24L35.58,19.02A8,8,0,0,1,39.7,24ZM78,24l2.47-1.24A10,10,0,0,0,86,13.82V0L84,1,51.53,17.24A10,10,0,0,0,46.24,24H48.3a8,8,0,0,1,4.12-4.98L84,3.24V13.82a8,8,0,0,1-4.42,7.16L73.53,24ZM78,0,48,15l-2,1V2.18A10.005,10.005,0,0,1,46.241,0L48.3,0A8,8,0,0,0,48,2.18V12.76L73.53,0Z"/></g><g transform="translate(-8078 -10919.998)"><path class="c" d="M10,0,40,15l2,1V2.18A10.005,10.005,0,0,0,41.76,0L39.7,0A8,8,0,0,1,40,2.18V12.76L14.47,0ZM41.76,24a10,10,0,0,0-5.29-6.76L4,1,2,0V13.82a10,10,0,0,0,5.53,8.94L10,24h4.47L8.42,20.98A8,8,0,0,1,4,13.82V3.24L35.58,19.02A8,8,0,0,1,39.7,24ZM78,24l2.47-1.24A10,10,0,0,0,86,13.82V0L84,1,51.53,17.24A10,10,0,0,0,46.24,24H48.3a8,8,0,0,1,4.12-4.98L84,3.24V13.82a8,8,0,0,1-4.42,7.16L73.53,24ZM78,0,48,15l-2,1V2.18A10.005,10.005,0,0,1,46.241,0L48.3,0A8,8,0,0,0,48,2.18V12.76L73.53,0Z"/></g><g transform="translate(-7990 -10919.998)"><path class="c" d="M10,0,40,15l2,1V2.18A10.005,10.005,0,0,0,41.76,0L39.7,0A8,8,0,0,1,40,2.18V12.76L14.47,0ZM41.76,24a10,10,0,0,0-5.29-6.76L4,1,2,0V13.82a10,10,0,0,0,5.53,8.94L10,24h4.47L8.42,20.98A8,8,0,0,1,4,13.82V3.24L35.58,19.02A8,8,0,0,1,39.7,24ZM78,24l2.47-1.24A10,10,0,0,0,86,13.82V0L84,1,51.53,17.24A10,10,0,0,0,46.24,24H48.3a8,8,0,0,1,4.12-4.98L84,3.24V13.82a8,8,0,0,1-4.42,7.16L73.53,24ZM78,0,48,15l-2,1V2.18A10.005,10.005,0,0,1,46.241,0L48.3,0A8,8,0,0,0,48,2.18V12.76L73.53,0Z"/></g><g transform="translate(-7902 -10919.998)"><path class="c" d="M10,0,40,15l2,1V2.18A10.005,10.005,0,0,0,41.76,0L39.7,0A8,8,0,0,1,40,2.18V12.76L14.47,0ZM41.76,24a10,10,0,0,0-5.29-6.76L4,1,2,0V13.82a10,10,0,0,0,5.53,8.94L10,24h4.47L8.42,20.98A8,8,0,0,1,4,13.82V3.24L35.58,19.02A8,8,0,0,1,39.7,24ZM78,24l2.47-1.24A10,10,0,0,0,86,13.82V0L84,1,51.53,17.24A10,10,0,0,0,46.24,24H48.3a8,8,0,0,1,4.12-4.98L84,3.24V13.82a8,8,0,0,1-4.42,7.16L73.53,24ZM78,0,48,15l-2,1V2.18A10.005,10.005,0,0,1,46.241,0L48.3,0A8,8,0,0,0,48,2.18V12.76L73.53,0Z"/></g><g transform="translate(-7814 -10919.998)"><path class="c" d="M10,0,40,15l2,1V2.18A10.005,10.005,0,0,0,41.76,0L39.7,0A8,8,0,0,1,40,2.18V12.76L14.47,0ZM41.76,24a10,10,0,0,0-5.29-6.76L4,1,2,0V13.82a10,10,0,0,0,5.53,8.94L10,24h4.47L8.42,20.98A8,8,0,0,1,4,13.82V3.24L35.58,19.02A8,8,0,0,1,39.7,24ZM78,24l2.47-1.24A10,10,0,0,0,86,13.82V0L84,1,51.53,17.24A10,10,0,0,0,46.24,24H48.3a8,8,0,0,1,4.12-4.98L84,3.24V13.82a8,8,0,0,1-4.42,7.16L73.53,24ZM78,0,48,15l-2,1V2.18A10.005,10.005,0,0,1,46.241,0L48.3,0A8,8,0,0,0,48,2.18V12.76L73.53,0Z"/></g><g transform="translate(-7726 -10919.998)"><path class="c" d="M10,0,40,15l2,1V2.18A10.005,10.005,0,0,0,41.76,0L39.7,0A8,8,0,0,1,40,2.18V12.76L14.47,0ZM41.76,24a10,10,0,0,0-5.29-6.76L4,1,2,0V13.82a10,10,0,0,0,5.53,8.94L10,24h4.47L8.42,20.98A8,8,0,0,1,4,13.82V3.24L35.58,19.02A8,8,0,0,1,39.7,24ZM78,24l2.47-1.24A10,10,0,0,0,86,13.82V0L84,1,51.53,17.24A10,10,0,0,0,46.24,24H48.3a8,8,0,0,1,4.12-4.98L84,3.24V13.82a8,8,0,0,1-4.42,7.16L73.53,24ZM78,0,48,15l-2,1V2.18A10.005,10.005,0,0,1,46.241,0L48.3,0A8,8,0,0,0,48,2.18V12.76L73.53,0Z"/></g><g transform="translate(-7638 -10919.998)"><path class="c" d="M10,0,40,15l2,1V2.18A10.005,10.005,0,0,0,41.76,0L39.7,0A8,8,0,0,1,40,2.18V12.76L14.47,0ZM41.76,24a10,10,0,0,0-5.29-6.76L4,1,2,0V13.82a10,10,0,0,0,5.53,8.94L10,24h4.47L8.42,20.98A8,8,0,0,1,4,13.82V3.24L35.58,19.02A8,8,0,0,1,39.7,24ZM78,24l2.47-1.24A10,10,0,0,0,86,13.82V0L84,1,51.53,17.24A10,10,0,0,0,46.24,24H48.3a8,8,0,0,1,4.12-4.98L84,3.24V13.82a8,8,0,0,1-4.42,7.16L73.53,24ZM78,0,48,15l-2,1V2.18A10.005,10.005,0,0,1,46.241,0L48.3,0A8,8,0,0,0,48,2.18V12.76L73.53,0Z"/></g><g transform="translate(-7550 -10919.998)"><path class="c" d="M10,0,40,15l2,1V2.18A10.005,10.005,0,0,0,41.76,0L39.7,0A8,8,0,0,1,40,2.18V12.76L14.47,0ZM41.76,24a10,10,0,0,0-5.29-6.76L4,1,2,0V13.82a10,10,0,0,0,5.53,8.94L10,24h4.47L8.42,20.98A8,8,0,0,1,4,13.82V3.24L35.58,19.02A8,8,0,0,1,39.7,24ZM78,24l2.47-1.24A10,10,0,0,0,86,13.82V0L84,1,51.53,17.24A10,10,0,0,0,46.24,24H48.3a8,8,0,0,1,4.12-4.98L84,3.24V13.82a8,8,0,0,1-4.42,7.16L73.53,24ZM78,0,48,15l-2,1V2.18A10.005,10.005,0,0,1,46.241,0L48.3,0A8,8,0,0,0,48,2.18V12.76L73.53,0Z"/></g><g transform="translate(-7462 -10919.998)"><path class="c" d="M10,0,40,15l2,1V2.18A10.005,10.005,0,0,0,41.76,0L39.7,0A8,8,0,0,1,40,2.18V12.76L14.47,0ZM41.76,24a10,10,0,0,0-5.29-6.76L4,1,2,0V13.82a10,10,0,0,0,5.53,8.94L10,24h4.47L8.42,20.98A8,8,0,0,1,4,13.82V3.24L35.58,19.02A8,8,0,0,1,39.7,24ZM78,24l2.47-1.24A10,10,0,0,0,86,13.82V0L84,1,51.53,17.24A10,10,0,0,0,46.24,24H48.3a8,8,0,0,1,4.12-4.98L84,3.24V13.82a8,8,0,0,1-4.42,7.16L73.53,24ZM78,0,48,15l-2,1V2.18A10.005,10.005,0,0,1,46.241,0L48.3,0A8,8,0,0,0,48,2.18V12.76L73.53,0Z"/></g><g transform="translate(-7374 -10919.998)"><path class="c" d="M10,0,40,15l2,1V2.18A10.005,10.005,0,0,0,41.76,0L39.7,0A8,8,0,0,1,40,2.18V12.76L14.47,0ZM41.76,24a10,10,0,0,0-5.29-6.76L4,1,2,0V13.82a10,10,0,0,0,5.53,8.94L10,24h4.47L8.42,20.98A8,8,0,0,1,4,13.82V3.24L35.58,19.02A8,8,0,0,1,39.7,24ZM78,24l2.47-1.24A10,10,0,0,0,86,13.82V0L84,1,51.53,17.24A10,10,0,0,0,46.24,24H48.3a8,8,0,0,1,4.12-4.98L84,3.24V13.82a8,8,0,0,1-4.42,7.16L73.53,24ZM78,0,48,15l-2,1V2.18A10.005,10.005,0,0,1,46.241,0L48.3,0A8,8,0,0,0,48,2.18V12.76L73.53,0Z"/></g><g transform="translate(-7286 -10919.998)"><path class="c" d="M10,0,40,15l2,1V2.18A10.005,10.005,0,0,0,41.76,0L39.7,0A8,8,0,0,1,40,2.18V12.76L14.47,0ZM41.76,24a10,10,0,0,0-5.29-6.76L4,1,2,0V13.82a10,10,0,0,0,5.53,8.94L10,24h4.47L8.42,20.98A8,8,0,0,1,4,13.82V3.24L35.58,19.02A8,8,0,0,1,39.7,24ZM78,24l2.47-1.24A10,10,0,0,0,86,13.82V0L84,1,51.53,17.24A10,10,0,0,0,46.24,24H48.3a8,8,0,0,1,4.12-4.98L84,3.24V13.82a8,8,0,0,1-4.42,7.16L73.53,24ZM78,0,48,15l-2,1V2.18A10.005,10.005,0,0,1,46.241,0L48.3,0A8,8,0,0,0,48,2.18V12.76L73.53,0Z"/></g><g transform="translate(-7198 -10919.998)"><path class="c" d="M10,0,40,15l2,1V2.18A10.005,10.005,0,0,0,41.76,0L39.7,0A8,8,0,0,1,40,2.18V12.76L14.47,0ZM41.76,24a10,10,0,0,0-5.29-6.76L4,1,2,0V13.82a10,10,0,0,0,5.53,8.94L10,24h4.47L8.42,20.98A8,8,0,0,1,4,13.82V3.24L35.58,19.02A8,8,0,0,1,39.7,24ZM78,24l2.47-1.24A10,10,0,0,0,86,13.82V0L84,1,51.53,17.24A10,10,0,0,0,46.24,24H48.3a8,8,0,0,1,4.12-4.98L84,3.24V13.82a8,8,0,0,1-4.42,7.16L73.53,24ZM78,0,48,15l-2,1V2.18A10.005,10.005,0,0,1,46.241,0L48.3,0A8,8,0,0,0,48,2.18V12.76L73.53,0Z"/></g><g transform="translate(-8430 -10895.998)"><path class="c" d="M10,0,40,15l2,1V2.18A10.005,10.005,0,0,0,41.76,0L39.7,0A8,8,0,0,1,40,2.18V12.76L14.47,0ZM41.76,24a10,10,0,0,0-5.29-6.76L4,1,2,0V13.82a10,10,0,0,0,5.53,8.94L10,24h4.47L8.42,20.98A8,8,0,0,1,4,13.82V3.24L35.58,19.02A8,8,0,0,1,39.7,24ZM78,24l2.47-1.24A10,10,0,0,0,86,13.82V0L84,1,51.53,17.24A10,10,0,0,0,46.24,24H48.3a8,8,0,0,1,4.12-4.98L84,3.24V13.82a8,8,0,0,1-4.42,7.16L73.53,24ZM78,0,48,15l-2,1V2.18A10.005,10.005,0,0,1,46.241,0L48.3,0A8,8,0,0,0,48,2.18V12.76L73.53,0Z"/></g><g transform="translate(-8342 -10895.998)"><path class="c" d="M10,0,40,15l2,1V2.18A10.005,10.005,0,0,0,41.76,0L39.7,0A8,8,0,0,1,40,2.18V12.76L14.47,0ZM41.76,24a10,10,0,0,0-5.29-6.76L4,1,2,0V13.82a10,10,0,0,0,5.53,8.94L10,24h4.47L8.42,20.98A8,8,0,0,1,4,13.82V3.24L35.58,19.02A8,8,0,0,1,39.7,24ZM78,24l2.47-1.24A10,10,0,0,0,86,13.82V0L84,1,51.53,17.24A10,10,0,0,0,46.24,24H48.3a8,8,0,0,1,4.12-4.98L84,3.24V13.82a8,8,0,0,1-4.42,7.16L73.53,24ZM78,0,48,15l-2,1V2.18A10.005,10.005,0,0,1,46.241,0L48.3,0A8,8,0,0,0,48,2.18V12.76L73.53,0Z"/></g><g transform="translate(-8254 -10895.998)"><path class="c" d="M10,0,40,15l2,1V2.18A10.005,10.005,0,0,0,41.76,0L39.7,0A8,8,0,0,1,40,2.18V12.76L14.47,0ZM41.76,24a10,10,0,0,0-5.29-6.76L4,1,2,0V13.82a10,10,0,0,0,5.53,8.94L10,24h4.47L8.42,20.98A8,8,0,0,1,4,13.82V3.24L35.58,19.02A8,8,0,0,1,39.7,24ZM78,24l2.47-1.24A10,10,0,0,0,86,13.82V0L84,1,51.53,17.24A10,10,0,0,0,46.24,24H48.3a8,8,0,0,1,4.12-4.98L84,3.24V13.82a8,8,0,0,1-4.42,7.16L73.53,24ZM78,0,48,15l-2,1V2.18A10.005,10.005,0,0,1,46.241,0L48.3,0A8,8,0,0,0,48,2.18V12.76L73.53,0Z"/></g><g transform="translate(-8166 -10895.998)"><path class="c" d="M10,0,40,15l2,1V2.18A10.005,10.005,0,0,0,41.76,0L39.7,0A8,8,0,0,1,40,2.18V12.76L14.47,0ZM41.76,24a10,10,0,0,0-5.29-6.76L4,1,2,0V13.82a10,10,0,0,0,5.53,8.94L10,24h4.47L8.42,20.98A8,8,0,0,1,4,13.82V3.24L35.58,19.02A8,8,0,0,1,39.7,24ZM78,24l2.47-1.24A10,10,0,0,0,86,13.82V0L84,1,51.53,17.24A10,10,0,0,0,46.24,24H48.3a8,8,0,0,1,4.12-4.98L84,3.24V13.82a8,8,0,0,1-4.42,7.16L73.53,24ZM78,0,48,15l-2,1V2.18A10.005,10.005,0,0,1,46.241,0L48.3,0A8,8,0,0,0,48,2.18V12.76L73.53,0Z"/></g><g transform="translate(-8078 -10895.998)"><path class="c" d="M10,0,40,15l2,1V2.18A10.005,10.005,0,0,0,41.76,0L39.7,0A8,8,0,0,1,40,2.18V12.76L14.47,0ZM41.76,24a10,10,0,0,0-5.29-6.76L4,1,2,0V13.82a10,10,0,0,0,5.53,8.94L10,24h4.47L8.42,20.98A8,8,0,0,1,4,13.82V3.24L35.58,19.02A8,8,0,0,1,39.7,24ZM78,24l2.47-1.24A10,10,0,0,0,86,13.82V0L84,1,51.53,17.24A10,10,0,0,0,46.24,24H48.3a8,8,0,0,1,4.12-4.98L84,3.24V13.82a8,8,0,0,1-4.42,7.16L73.53,24ZM78,0,48,15l-2,1V2.18A10.005,10.005,0,0,1,46.241,0L48.3,0A8,8,0,0,0,48,2.18V12.76L73.53,0Z"/></g><g transform="translate(-7990 -10895.998)"><path class="c" d="M10,0,40,15l2,1V2.18A10.005,10.005,0,0,0,41.76,0L39.7,0A8,8,0,0,1,40,2.18V12.76L14.47,0ZM41.76,24a10,10,0,0,0-5.29-6.76L4,1,2,0V13.82a10,10,0,0,0,5.53,8.94L10,24h4.47L8.42,20.98A8,8,0,0,1,4,13.82V3.24L35.58,19.02A8,8,0,0,1,39.7,24ZM78,24l2.47-1.24A10,10,0,0,0,86,13.82V0L84,1,51.53,17.24A10,10,0,0,0,46.24,24H48.3a8,8,0,0,1,4.12-4.98L84,3.24V13.82a8,8,0,0,1-4.42,7.16L73.53,24ZM78,0,48,15l-2,1V2.18A10.005,10.005,0,0,1,46.241,0L48.3,0A8,8,0,0,0,48,2.18V12.76L73.53,0Z"/></g><g transform="translate(-7902 -10895.998)"><path class="c" d="M10,0,40,15l2,1V2.18A10.005,10.005,0,0,0,41.76,0L39.7,0A8,8,0,0,1,40,2.18V12.76L14.47,0ZM41.76,24a10,10,0,0,0-5.29-6.76L4,1,2,0V13.82a10,10,0,0,0,5.53,8.94L10,24h4.47L8.42,20.98A8,8,0,0,1,4,13.82V3.24L35.58,19.02A8,8,0,0,1,39.7,24ZM78,24l2.47-1.24A10,10,0,0,0,86,13.82V0L84,1,51.53,17.24A10,10,0,0,0,46.24,24H48.3a8,8,0,0,1,4.12-4.98L84,3.24V13.82a8,8,0,0,1-4.42,7.16L73.53,24ZM78,0,48,15l-2,1V2.18A10.005,10.005,0,0,1,46.241,0L48.3,0A8,8,0,0,0,48,2.18V12.76L73.53,0Z"/></g><g transform="translate(-7814 -10895.998)"><path class="c" d="M10,0,40,15l2,1V2.18A10.005,10.005,0,0,0,41.76,0L39.7,0A8,8,0,0,1,40,2.18V12.76L14.47,0ZM41.76,24a10,10,0,0,0-5.29-6.76L4,1,2,0V13.82a10,10,0,0,0,5.53,8.94L10,24h4.47L8.42,20.98A8,8,0,0,1,4,13.82V3.24L35.58,19.02A8,8,0,0,1,39.7,24ZM78,24l2.47-1.24A10,10,0,0,0,86,13.82V0L84,1,51.53,17.24A10,10,0,0,0,46.24,24H48.3a8,8,0,0,1,4.12-4.98L84,3.24V13.82a8,8,0,0,1-4.42,7.16L73.53,24ZM78,0,48,15l-2,1V2.18A10.005,10.005,0,0,1,46.241,0L48.3,0A8,8,0,0,0,48,2.18V12.76L73.53,0Z"/></g><g transform="translate(-7726 -10895.998)"><path class="c" d="M10,0,40,15l2,1V2.18A10.005,10.005,0,0,0,41.76,0L39.7,0A8,8,0,0,1,40,2.18V12.76L14.47,0ZM41.76,24a10,10,0,0,0-5.29-6.76L4,1,2,0V13.82a10,10,0,0,0,5.53,8.94L10,24h4.47L8.42,20.98A8,8,0,0,1,4,13.82V3.24L35.58,19.02A8,8,0,0,1,39.7,24ZM78,24l2.47-1.24A10,10,0,0,0,86,13.82V0L84,1,51.53,17.24A10,10,0,0,0,46.24,24H48.3a8,8,0,0,1,4.12-4.98L84,3.24V13.82a8,8,0,0,1-4.42,7.16L73.53,24ZM78,0,48,15l-2,1V2.18A10.005,10.005,0,0,1,46.241,0L48.3,0A8,8,0,0,0,48,2.18V12.76L73.53,0Z"/></g><g transform="translate(-7638 -10895.998)"><path class="c" d="M10,0,40,15l2,1V2.18A10.005,10.005,0,0,0,41.76,0L39.7,0A8,8,0,0,1,40,2.18V12.76L14.47,0ZM41.76,24a10,10,0,0,0-5.29-6.76L4,1,2,0V13.82a10,10,0,0,0,5.53,8.94L10,24h4.47L8.42,20.98A8,8,0,0,1,4,13.82V3.24L35.58,19.02A8,8,0,0,1,39.7,24ZM78,24l2.47-1.24A10,10,0,0,0,86,13.82V0L84,1,51.53,17.24A10,10,0,0,0,46.24,24H48.3a8,8,0,0,1,4.12-4.98L84,3.24V13.82a8,8,0,0,1-4.42,7.16L73.53,24ZM78,0,48,15l-2,1V2.18A10.005,10.005,0,0,1,46.241,0L48.3,0A8,8,0,0,0,48,2.18V12.76L73.53,0Z"/></g><g transform="translate(-7550 -10895.998)"><path class="c" d="M10,0,40,15l2,1V2.18A10.005,10.005,0,0,0,41.76,0L39.7,0A8,8,0,0,1,40,2.18V12.76L14.47,0ZM41.76,24a10,10,0,0,0-5.29-6.76L4,1,2,0V13.82a10,10,0,0,0,5.53,8.94L10,24h4.47L8.42,20.98A8,8,0,0,1,4,13.82V3.24L35.58,19.02A8,8,0,0,1,39.7,24ZM78,24l2.47-1.24A10,10,0,0,0,86,13.82V0L84,1,51.53,17.24A10,10,0,0,0,46.24,24H48.3a8,8,0,0,1,4.12-4.98L84,3.24V13.82a8,8,0,0,1-4.42,7.16L73.53,24ZM78,0,48,15l-2,1V2.18A10.005,10.005,0,0,1,46.241,0L48.3,0A8,8,0,0,0,48,2.18V12.76L73.53,0Z"/></g><g transform="translate(-7462 -10895.998)"><path class="c" d="M10,0,40,15l2,1V2.18A10.005,10.005,0,0,0,41.76,0L39.7,0A8,8,0,0,1,40,2.18V12.76L14.47,0ZM41.76,24a10,10,0,0,0-5.29-6.76L4,1,2,0V13.82a10,10,0,0,0,5.53,8.94L10,24h4.47L8.42,20.98A8,8,0,0,1,4,13.82V3.24L35.58,19.02A8,8,0,0,1,39.7,24ZM78,24l2.47-1.24A10,10,0,0,0,86,13.82V0L84,1,51.53,17.24A10,10,0,0,0,46.24,24H48.3a8,8,0,0,1,4.12-4.98L84,3.24V13.82a8,8,0,0,1-4.42,7.16L73.53,24ZM78,0,48,15l-2,1V2.18A10.005,10.005,0,0,1,46.241,0L48.3,0A8,8,0,0,0,48,2.18V12.76L73.53,0Z"/></g><g transform="translate(-7374 -10895.998)"><path class="c" d="M10,0,40,15l2,1V2.18A10.005,10.005,0,0,0,41.76,0L39.7,0A8,8,0,0,1,40,2.18V12.76L14.47,0ZM41.76,24a10,10,0,0,0-5.29-6.76L4,1,2,0V13.82a10,10,0,0,0,5.53,8.94L10,24h4.47L8.42,20.98A8,8,0,0,1,4,13.82V3.24L35.58,19.02A8,8,0,0,1,39.7,24ZM78,24l2.47-1.24A10,10,0,0,0,86,13.82V0L84,1,51.53,17.24A10,10,0,0,0,46.24,24H48.3a8,8,0,0,1,4.12-4.98L84,3.24V13.82a8,8,0,0,1-4.42,7.16L73.53,24ZM78,0,48,15l-2,1V2.18A10.005,10.005,0,0,1,46.241,0L48.3,0A8,8,0,0,0,48,2.18V12.76L73.53,0Z"/></g><g transform="translate(-7286 -10895.998)"><path class="c" d="M10,0,40,15l2,1V2.18A10.005,10.005,0,0,0,41.76,0L39.7,0A8,8,0,0,1,40,2.18V12.76L14.47,0ZM41.76,24a10,10,0,0,0-5.29-6.76L4,1,2,0V13.82a10,10,0,0,0,5.53,8.94L10,24h4.47L8.42,20.98A8,8,0,0,1,4,13.82V3.24L35.58,19.02A8,8,0,0,1,39.7,24ZM78,24l2.47-1.24A10,10,0,0,0,86,13.82V0L84,1,51.53,17.24A10,10,0,0,0,46.24,24H48.3a8,8,0,0,1,4.12-4.98L84,3.24V13.82a8,8,0,0,1-4.42,7.16L73.53,24ZM78,0,48,15l-2,1V2.18A10.005,10.005,0,0,1,46.241,0L48.3,0A8,8,0,0,0,48,2.18V12.76L73.53,0Z"/></g><g transform="translate(-7198 -10895.998)"><path class="c" d="M10,0,40,15l2,1V2.18A10.005,10.005,0,0,0,41.76,0L39.7,0A8,8,0,0,1,40,2.18V12.76L14.47,0ZM41.76,24a10,10,0,0,0-5.29-6.76L4,1,2,0V13.82a10,10,0,0,0,5.53,8.94L10,24h4.47L8.42,20.98A8,8,0,0,1,4,13.82V3.24L35.58,19.02A8,8,0,0,1,39.7,24ZM78,24l2.47-1.24A10,10,0,0,0,86,13.82V0L84,1,51.53,17.24A10,10,0,0,0,46.24,24H48.3a8,8,0,0,1,4.12-4.98L84,3.24V13.82a8,8,0,0,1-4.42,7.16L73.53,24ZM78,0,48,15l-2,1V2.18A10.005,10.005,0,0,1,46.241,0L48.3,0A8,8,0,0,0,48,2.18V12.76L73.53,0Z"/></g><g transform="translate(-8430 -10871.998)"><path class="c" d="M10,0,40,15l2,1V2.18A10.005,10.005,0,0,0,41.76,0L39.7,0A8,8,0,0,1,40,2.18V12.76L14.47,0ZM41.76,24a10,10,0,0,0-5.29-6.76L4,1,2,0V13.82a10,10,0,0,0,5.53,8.94L10,24h4.47L8.42,20.98A8,8,0,0,1,4,13.82V3.24L35.58,19.02A8,8,0,0,1,39.7,24ZM78,24l2.47-1.24A10,10,0,0,0,86,13.82V0L84,1,51.53,17.24A10,10,0,0,0,46.24,24H48.3a8,8,0,0,1,4.12-4.98L84,3.24V13.82a8,8,0,0,1-4.42,7.16L73.53,24ZM78,0,48,15l-2,1V2.18A10.005,10.005,0,0,1,46.241,0L48.3,0A8,8,0,0,0,48,2.18V12.76L73.53,0Z"/></g><g transform="translate(-8342 -10871.998)"><path class="c" d="M10,0,40,15l2,1V2.18A10.005,10.005,0,0,0,41.76,0L39.7,0A8,8,0,0,1,40,2.18V12.76L14.47,0ZM41.76,24a10,10,0,0,0-5.29-6.76L4,1,2,0V13.82a10,10,0,0,0,5.53,8.94L10,24h4.47L8.42,20.98A8,8,0,0,1,4,13.82V3.24L35.58,19.02A8,8,0,0,1,39.7,24ZM78,24l2.47-1.24A10,10,0,0,0,86,13.82V0L84,1,51.53,17.24A10,10,0,0,0,46.24,24H48.3a8,8,0,0,1,4.12-4.98L84,3.24V13.82a8,8,0,0,1-4.42,7.16L73.53,24ZM78,0,48,15l-2,1V2.18A10.005,10.005,0,0,1,46.241,0L48.3,0A8,8,0,0,0,48,2.18V12.76L73.53,0Z"/></g><g transform="translate(-8254 -10871.998)"><path class="c" d="M10,0,40,15l2,1V2.18A10.005,10.005,0,0,0,41.76,0L39.7,0A8,8,0,0,1,40,2.18V12.76L14.47,0ZM41.76,24a10,10,0,0,0-5.29-6.76L4,1,2,0V13.82a10,10,0,0,0,5.53,8.94L10,24h4.47L8.42,20.98A8,8,0,0,1,4,13.82V3.24L35.58,19.02A8,8,0,0,1,39.7,24ZM78,24l2.47-1.24A10,10,0,0,0,86,13.82V0L84,1,51.53,17.24A10,10,0,0,0,46.24,24H48.3a8,8,0,0,1,4.12-4.98L84,3.24V13.82a8,8,0,0,1-4.42,7.16L73.53,24ZM78,0,48,15l-2,1V2.18A10.005,10.005,0,0,1,46.241,0L48.3,0A8,8,0,0,0,48,2.18V12.76L73.53,0Z"/></g><g transform="translate(-8166 -10871.998)"><path class="c" d="M10,0,40,15l2,1V2.18A10.005,10.005,0,0,0,41.76,0L39.7,0A8,8,0,0,1,40,2.18V12.76L14.47,0ZM41.76,24a10,10,0,0,0-5.29-6.76L4,1,2,0V13.82a10,10,0,0,0,5.53,8.94L10,24h4.47L8.42,20.98A8,8,0,0,1,4,13.82V3.24L35.58,19.02A8,8,0,0,1,39.7,24ZM78,24l2.47-1.24A10,10,0,0,0,86,13.82V0L84,1,51.53,17.24A10,10,0,0,0,46.24,24H48.3a8,8,0,0,1,4.12-4.98L84,3.24V13.82a8,8,0,0,1-4.42,7.16L73.53,24ZM78,0,48,15l-2,1V2.18A10.005,10.005,0,0,1,46.241,0L48.3,0A8,8,0,0,0,48,2.18V12.76L73.53,0Z"/></g><g transform="translate(-8078 -10871.998)"><path class="c" d="M10,0,40,15l2,1V2.18A10.005,10.005,0,0,0,41.76,0L39.7,0A8,8,0,0,1,40,2.18V12.76L14.47,0ZM41.76,24a10,10,0,0,0-5.29-6.76L4,1,2,0V13.82a10,10,0,0,0,5.53,8.94L10,24h4.47L8.42,20.98A8,8,0,0,1,4,13.82V3.24L35.58,19.02A8,8,0,0,1,39.7,24ZM78,24l2.47-1.24A10,10,0,0,0,86,13.82V0L84,1,51.53,17.24A10,10,0,0,0,46.24,24H48.3a8,8,0,0,1,4.12-4.98L84,3.24V13.82a8,8,0,0,1-4.42,7.16L73.53,24ZM78,0,48,15l-2,1V2.18A10.005,10.005,0,0,1,46.241,0L48.3,0A8,8,0,0,0,48,2.18V12.76L73.53,0Z"/></g><g transform="translate(-7990 -10871.998)"><path class="c" d="M10,0,40,15l2,1V2.18A10.005,10.005,0,0,0,41.76,0L39.7,0A8,8,0,0,1,40,2.18V12.76L14.47,0ZM41.76,24a10,10,0,0,0-5.29-6.76L4,1,2,0V13.82a10,10,0,0,0,5.53,8.94L10,24h4.47L8.42,20.98A8,8,0,0,1,4,13.82V3.24L35.58,19.02A8,8,0,0,1,39.7,24ZM78,24l2.47-1.24A10,10,0,0,0,86,13.82V0L84,1,51.53,17.24A10,10,0,0,0,46.24,24H48.3a8,8,0,0,1,4.12-4.98L84,3.24V13.82a8,8,0,0,1-4.42,7.16L73.53,24ZM78,0,48,15l-2,1V2.18A10.005,10.005,0,0,1,46.241,0L48.3,0A8,8,0,0,0,48,2.18V12.76L73.53,0Z"/></g><g transform="translate(-7902 -10871.998)"><path class="c" d="M10,0,40,15l2,1V2.18A10.005,10.005,0,0,0,41.76,0L39.7,0A8,8,0,0,1,40,2.18V12.76L14.47,0ZM41.76,24a10,10,0,0,0-5.29-6.76L4,1,2,0V13.82a10,10,0,0,0,5.53,8.94L10,24h4.47L8.42,20.98A8,8,0,0,1,4,13.82V3.24L35.58,19.02A8,8,0,0,1,39.7,24ZM78,24l2.47-1.24A10,10,0,0,0,86,13.82V0L84,1,51.53,17.24A10,10,0,0,0,46.24,24H48.3a8,8,0,0,1,4.12-4.98L84,3.24V13.82a8,8,0,0,1-4.42,7.16L73.53,24ZM78,0,48,15l-2,1V2.18A10.005,10.005,0,0,1,46.241,0L48.3,0A8,8,0,0,0,48,2.18V12.76L73.53,0Z"/></g><g transform="translate(-7814 -10871.998)"><path class="c" d="M10,0,40,15l2,1V2.18A10.005,10.005,0,0,0,41.76,0L39.7,0A8,8,0,0,1,40,2.18V12.76L14.47,0ZM41.76,24a10,10,0,0,0-5.29-6.76L4,1,2,0V13.82a10,10,0,0,0,5.53,8.94L10,24h4.47L8.42,20.98A8,8,0,0,1,4,13.82V3.24L35.58,19.02A8,8,0,0,1,39.7,24ZM78,24l2.47-1.24A10,10,0,0,0,86,13.82V0L84,1,51.53,17.24A10,10,0,0,0,46.24,24H48.3a8,8,0,0,1,4.12-4.98L84,3.24V13.82a8,8,0,0,1-4.42,7.16L73.53,24ZM78,0,48,15l-2,1V2.18A10.005,10.005,0,0,1,46.241,0L48.3,0A8,8,0,0,0,48,2.18V12.76L73.53,0Z"/></g><g transform="translate(-7726 -10871.998)"><path class="c" d="M10,0,40,15l2,1V2.18A10.005,10.005,0,0,0,41.76,0L39.7,0A8,8,0,0,1,40,2.18V12.76L14.47,0ZM41.76,24a10,10,0,0,0-5.29-6.76L4,1,2,0V13.82a10,10,0,0,0,5.53,8.94L10,24h4.47L8.42,20.98A8,8,0,0,1,4,13.82V3.24L35.58,19.02A8,8,0,0,1,39.7,24ZM78,24l2.47-1.24A10,10,0,0,0,86,13.82V0L84,1,51.53,17.24A10,10,0,0,0,46.24,24H48.3a8,8,0,0,1,4.12-4.98L84,3.24V13.82a8,8,0,0,1-4.42,7.16L73.53,24ZM78,0,48,15l-2,1V2.18A10.005,10.005,0,0,1,46.241,0L48.3,0A8,8,0,0,0,48,2.18V12.76L73.53,0Z"/></g><g transform="translate(-7638 -10871.998)"><path class="c" d="M10,0,40,15l2,1V2.18A10.005,10.005,0,0,0,41.76,0L39.7,0A8,8,0,0,1,40,2.18V12.76L14.47,0ZM41.76,24a10,10,0,0,0-5.29-6.76L4,1,2,0V13.82a10,10,0,0,0,5.53,8.94L10,24h4.47L8.42,20.98A8,8,0,0,1,4,13.82V3.24L35.58,19.02A8,8,0,0,1,39.7,24ZM78,24l2.47-1.24A10,10,0,0,0,86,13.82V0L84,1,51.53,17.24A10,10,0,0,0,46.24,24H48.3a8,8,0,0,1,4.12-4.98L84,3.24V13.82a8,8,0,0,1-4.42,7.16L73.53,24ZM78,0,48,15l-2,1V2.18A10.005,10.005,0,0,1,46.241,0L48.3,0A8,8,0,0,0,48,2.18V12.76L73.53,0Z"/></g><g transform="translate(-7550 -10871.998)"><path class="c" d="M10,0,40,15l2,1V2.18A10.005,10.005,0,0,0,41.76,0L39.7,0A8,8,0,0,1,40,2.18V12.76L14.47,0ZM41.76,24a10,10,0,0,0-5.29-6.76L4,1,2,0V13.82a10,10,0,0,0,5.53,8.94L10,24h4.47L8.42,20.98A8,8,0,0,1,4,13.82V3.24L35.58,19.02A8,8,0,0,1,39.7,24ZM78,24l2.47-1.24A10,10,0,0,0,86,13.82V0L84,1,51.53,17.24A10,10,0,0,0,46.24,24H48.3a8,8,0,0,1,4.12-4.98L84,3.24V13.82a8,8,0,0,1-4.42,7.16L73.53,24ZM78,0,48,15l-2,1V2.18A10.005,10.005,0,0,1,46.241,0L48.3,0A8,8,0,0,0,48,2.18V12.76L73.53,0Z"/></g><g transform="translate(-7462 -10871.998)"><path class="c" d="M10,0,40,15l2,1V2.18A10.005,10.005,0,0,0,41.76,0L39.7,0A8,8,0,0,1,40,2.18V12.76L14.47,0ZM41.76,24a10,10,0,0,0-5.29-6.76L4,1,2,0V13.82a10,10,0,0,0,5.53,8.94L10,24h4.47L8.42,20.98A8,8,0,0,1,4,13.82V3.24L35.58,19.02A8,8,0,0,1,39.7,24ZM78,24l2.47-1.24A10,10,0,0,0,86,13.82V0L84,1,51.53,17.24A10,10,0,0,0,46.24,24H48.3a8,8,0,0,1,4.12-4.98L84,3.24V13.82a8,8,0,0,1-4.42,7.16L73.53,24ZM78,0,48,15l-2,1V2.18A10.005,10.005,0,0,1,46.241,0L48.3,0A8,8,0,0,0,48,2.18V12.76L73.53,0Z"/></g><g transform="translate(-7374 -10871.998)"><path class="c" d="M10,0,40,15l2,1V2.18A10.005,10.005,0,0,0,41.76,0L39.7,0A8,8,0,0,1,40,2.18V12.76L14.47,0ZM41.76,24a10,10,0,0,0-5.29-6.76L4,1,2,0V13.82a10,10,0,0,0,5.53,8.94L10,24h4.47L8.42,20.98A8,8,0,0,1,4,13.82V3.24L35.58,19.02A8,8,0,0,1,39.7,24ZM78,24l2.47-1.24A10,10,0,0,0,86,13.82V0L84,1,51.53,17.24A10,10,0,0,0,46.24,24H48.3a8,8,0,0,1,4.12-4.98L84,3.24V13.82a8,8,0,0,1-4.42,7.16L73.53,24ZM78,0,48,15l-2,1V2.18A10.005,10.005,0,0,1,46.241,0L48.3,0A8,8,0,0,0,48,2.18V12.76L73.53,0Z"/></g><g transform="translate(-7286 -10871.998)"><path class="c" d="M10,0,40,15l2,1V2.18A10.005,10.005,0,0,0,41.76,0L39.7,0A8,8,0,0,1,40,2.18V12.76L14.47,0ZM41.76,24a10,10,0,0,0-5.29-6.76L4,1,2,0V13.82a10,10,0,0,0,5.53,8.94L10,24h4.47L8.42,20.98A8,8,0,0,1,4,13.82V3.24L35.58,19.02A8,8,0,0,1,39.7,24ZM78,24l2.47-1.24A10,10,0,0,0,86,13.82V0L84,1,51.53,17.24A10,10,0,0,0,46.24,24H48.3a8,8,0,0,1,4.12-4.98L84,3.24V13.82a8,8,0,0,1-4.42,7.16L73.53,24ZM78,0,48,15l-2,1V2.18A10.005,10.005,0,0,1,46.241,0L48.3,0A8,8,0,0,0,48,2.18V12.76L73.53,0Z"/></g><g transform="translate(-7198 -10871.998)"><path class="c" d="M10,0,40,15l2,1V2.18A10.005,10.005,0,0,0,41.76,0L39.7,0A8,8,0,0,1,40,2.18V12.76L14.47,0ZM41.76,24a10,10,0,0,0-5.29-6.76L4,1,2,0V13.82a10,10,0,0,0,5.53,8.94L10,24h4.47L8.42,20.98A8,8,0,0,1,4,13.82V3.24L35.58,19.02A8,8,0,0,1,39.7,24ZM78,24l2.47-1.24A10,10,0,0,0,86,13.82V0L84,1,51.53,17.24A10,10,0,0,0,46.24,24H48.3a8,8,0,0,1,4.12-4.98L84,3.24V13.82a8,8,0,0,1-4.42,7.16L73.53,24ZM78,0,48,15l-2,1V2.18A10.005,10.005,0,0,1,46.241,0L48.3,0A8,8,0,0,0,48,2.18V12.76L73.53,0Z"/></g><g transform="translate(-8430 -10847.998)"><path class="c" d="M10,0,40,15l2,1V2.18A10.005,10.005,0,0,0,41.76,0L39.7,0A8,8,0,0,1,40,2.18V12.76L14.47,0ZM41.76,24a10,10,0,0,0-5.29-6.76L4,1,2,0V13.82a10,10,0,0,0,5.53,8.94L10,24h4.47L8.42,20.98A8,8,0,0,1,4,13.82V3.24L35.58,19.02A8,8,0,0,1,39.7,24ZM78,24l2.47-1.24A10,10,0,0,0,86,13.82V0L84,1,51.53,17.24A10,10,0,0,0,46.24,24H48.3a8,8,0,0,1,4.12-4.98L84,3.24V13.82a8,8,0,0,1-4.42,7.16L73.53,24ZM78,0,48,15l-2,1V2.18A10.005,10.005,0,0,1,46.241,0L48.3,0A8,8,0,0,0,48,2.18V12.76L73.53,0Z"/></g><g transform="translate(-8342 -10847.998)"><path class="c" d="M10,0,40,15l2,1V2.18A10.005,10.005,0,0,0,41.76,0L39.7,0A8,8,0,0,1,40,2.18V12.76L14.47,0ZM41.76,24a10,10,0,0,0-5.29-6.76L4,1,2,0V13.82a10,10,0,0,0,5.53,8.94L10,24h4.47L8.42,20.98A8,8,0,0,1,4,13.82V3.24L35.58,19.02A8,8,0,0,1,39.7,24ZM78,24l2.47-1.24A10,10,0,0,0,86,13.82V0L84,1,51.53,17.24A10,10,0,0,0,46.24,24H48.3a8,8,0,0,1,4.12-4.98L84,3.24V13.82a8,8,0,0,1-4.42,7.16L73.53,24ZM78,0,48,15l-2,1V2.18A10.005,10.005,0,0,1,46.241,0L48.3,0A8,8,0,0,0,48,2.18V12.76L73.53,0Z"/></g><g transform="translate(-8254 -10847.998)"><path class="c" d="M10,0,40,15l2,1V2.18A10.005,10.005,0,0,0,41.76,0L39.7,0A8,8,0,0,1,40,2.18V12.76L14.47,0ZM41.76,24a10,10,0,0,0-5.29-6.76L4,1,2,0V13.82a10,10,0,0,0,5.53,8.94L10,24h4.47L8.42,20.98A8,8,0,0,1,4,13.82V3.24L35.58,19.02A8,8,0,0,1,39.7,24ZM78,24l2.47-1.24A10,10,0,0,0,86,13.82V0L84,1,51.53,17.24A10,10,0,0,0,46.24,24H48.3a8,8,0,0,1,4.12-4.98L84,3.24V13.82a8,8,0,0,1-4.42,7.16L73.53,24ZM78,0,48,15l-2,1V2.18A10.005,10.005,0,0,1,46.241,0L48.3,0A8,8,0,0,0,48,2.18V12.76L73.53,0Z"/></g><g transform="translate(-8166 -10847.998)"><path class="c" d="M10,0,40,15l2,1V2.18A10.005,10.005,0,0,0,41.76,0L39.7,0A8,8,0,0,1,40,2.18V12.76L14.47,0ZM41.76,24a10,10,0,0,0-5.29-6.76L4,1,2,0V13.82a10,10,0,0,0,5.53,8.94L10,24h4.47L8.42,20.98A8,8,0,0,1,4,13.82V3.24L35.58,19.02A8,8,0,0,1,39.7,24ZM78,24l2.47-1.24A10,10,0,0,0,86,13.82V0L84,1,51.53,17.24A10,10,0,0,0,46.24,24H48.3a8,8,0,0,1,4.12-4.98L84,3.24V13.82a8,8,0,0,1-4.42,7.16L73.53,24ZM78,0,48,15l-2,1V2.18A10.005,10.005,0,0,1,46.241,0L48.3,0A8,8,0,0,0,48,2.18V12.76L73.53,0Z"/></g><g transform="translate(-8078 -10847.998)"><path class="c" d="M10,0,40,15l2,1V2.18A10.005,10.005,0,0,0,41.76,0L39.7,0A8,8,0,0,1,40,2.18V12.76L14.47,0ZM41.76,24a10,10,0,0,0-5.29-6.76L4,1,2,0V13.82a10,10,0,0,0,5.53,8.94L10,24h4.47L8.42,20.98A8,8,0,0,1,4,13.82V3.24L35.58,19.02A8,8,0,0,1,39.7,24ZM78,24l2.47-1.24A10,10,0,0,0,86,13.82V0L84,1,51.53,17.24A10,10,0,0,0,46.24,24H48.3a8,8,0,0,1,4.12-4.98L84,3.24V13.82a8,8,0,0,1-4.42,7.16L73.53,24ZM78,0,48,15l-2,1V2.18A10.005,10.005,0,0,1,46.241,0L48.3,0A8,8,0,0,0,48,2.18V12.76L73.53,0Z"/></g><g transform="translate(-7990 -10847.998)"><path class="c" d="M10,0,40,15l2,1V2.18A10.005,10.005,0,0,0,41.76,0L39.7,0A8,8,0,0,1,40,2.18V12.76L14.47,0ZM41.76,24a10,10,0,0,0-5.29-6.76L4,1,2,0V13.82a10,10,0,0,0,5.53,8.94L10,24h4.47L8.42,20.98A8,8,0,0,1,4,13.82V3.24L35.58,19.02A8,8,0,0,1,39.7,24ZM78,24l2.47-1.24A10,10,0,0,0,86,13.82V0L84,1,51.53,17.24A10,10,0,0,0,46.24,24H48.3a8,8,0,0,1,4.12-4.98L84,3.24V13.82a8,8,0,0,1-4.42,7.16L73.53,24ZM78,0,48,15l-2,1V2.18A10.005,10.005,0,0,1,46.241,0L48.3,0A8,8,0,0,0,48,2.18V12.76L73.53,0Z"/></g><g transform="translate(-7902 -10847.998)"><path class="c" d="M10,0,40,15l2,1V2.18A10.005,10.005,0,0,0,41.76,0L39.7,0A8,8,0,0,1,40,2.18V12.76L14.47,0ZM41.76,24a10,10,0,0,0-5.29-6.76L4,1,2,0V13.82a10,10,0,0,0,5.53,8.94L10,24h4.47L8.42,20.98A8,8,0,0,1,4,13.82V3.24L35.58,19.02A8,8,0,0,1,39.7,24ZM78,24l2.47-1.24A10,10,0,0,0,86,13.82V0L84,1,51.53,17.24A10,10,0,0,0,46.24,24H48.3a8,8,0,0,1,4.12-4.98L84,3.24V13.82a8,8,0,0,1-4.42,7.16L73.53,24ZM78,0,48,15l-2,1V2.18A10.005,10.005,0,0,1,46.241,0L48.3,0A8,8,0,0,0,48,2.18V12.76L73.53,0Z"/></g><g transform="translate(-7814 -10847.998)"><path class="c" d="M10,0,40,15l2,1V2.18A10.005,10.005,0,0,0,41.76,0L39.7,0A8,8,0,0,1,40,2.18V12.76L14.47,0ZM41.76,24a10,10,0,0,0-5.29-6.76L4,1,2,0V13.82a10,10,0,0,0,5.53,8.94L10,24h4.47L8.42,20.98A8,8,0,0,1,4,13.82V3.24L35.58,19.02A8,8,0,0,1,39.7,24ZM78,24l2.47-1.24A10,10,0,0,0,86,13.82V0L84,1,51.53,17.24A10,10,0,0,0,46.24,24H48.3a8,8,0,0,1,4.12-4.98L84,3.24V13.82a8,8,0,0,1-4.42,7.16L73.53,24ZM78,0,48,15l-2,1V2.18A10.005,10.005,0,0,1,46.241,0L48.3,0A8,8,0,0,0,48,2.18V12.76L73.53,0Z"/></g><g transform="translate(-7726 -10847.998)"><path class="c" d="M10,0,40,15l2,1V2.18A10.005,10.005,0,0,0,41.76,0L39.7,0A8,8,0,0,1,40,2.18V12.76L14.47,0ZM41.76,24a10,10,0,0,0-5.29-6.76L4,1,2,0V13.82a10,10,0,0,0,5.53,8.94L10,24h4.47L8.42,20.98A8,8,0,0,1,4,13.82V3.24L35.58,19.02A8,8,0,0,1,39.7,24ZM78,24l2.47-1.24A10,10,0,0,0,86,13.82V0L84,1,51.53,17.24A10,10,0,0,0,46.24,24H48.3a8,8,0,0,1,4.12-4.98L84,3.24V13.82a8,8,0,0,1-4.42,7.16L73.53,24ZM78,0,48,15l-2,1V2.18A10.005,10.005,0,0,1,46.241,0L48.3,0A8,8,0,0,0,48,2.18V12.76L73.53,0Z"/></g><g transform="translate(-7638 -10847.998)"><path class="c" d="M10,0,40,15l2,1V2.18A10.005,10.005,0,0,0,41.76,0L39.7,0A8,8,0,0,1,40,2.18V12.76L14.47,0ZM41.76,24a10,10,0,0,0-5.29-6.76L4,1,2,0V13.82a10,10,0,0,0,5.53,8.94L10,24h4.47L8.42,20.98A8,8,0,0,1,4,13.82V3.24L35.58,19.02A8,8,0,0,1,39.7,24ZM78,24l2.47-1.24A10,10,0,0,0,86,13.82V0L84,1,51.53,17.24A10,10,0,0,0,46.24,24H48.3a8,8,0,0,1,4.12-4.98L84,3.24V13.82a8,8,0,0,1-4.42,7.16L73.53,24ZM78,0,48,15l-2,1V2.18A10.005,10.005,0,0,1,46.241,0L48.3,0A8,8,0,0,0,48,2.18V12.76L73.53,0Z"/></g><g transform="translate(-7550 -10847.998)"><path class="c" d="M10,0,40,15l2,1V2.18A10.005,10.005,0,0,0,41.76,0L39.7,0A8,8,0,0,1,40,2.18V12.76L14.47,0ZM41.76,24a10,10,0,0,0-5.29-6.76L4,1,2,0V13.82a10,10,0,0,0,5.53,8.94L10,24h4.47L8.42,20.98A8,8,0,0,1,4,13.82V3.24L35.58,19.02A8,8,0,0,1,39.7,24ZM78,24l2.47-1.24A10,10,0,0,0,86,13.82V0L84,1,51.53,17.24A10,10,0,0,0,46.24,24H48.3a8,8,0,0,1,4.12-4.98L84,3.24V13.82a8,8,0,0,1-4.42,7.16L73.53,24ZM78,0,48,15l-2,1V2.18A10.005,10.005,0,0,1,46.241,0L48.3,0A8,8,0,0,0,48,2.18V12.76L73.53,0Z"/></g><g transform="translate(-7462 -10847.998)"><path class="c" d="M10,0,40,15l2,1V2.18A10.005,10.005,0,0,0,41.76,0L39.7,0A8,8,0,0,1,40,2.18V12.76L14.47,0ZM41.76,24a10,10,0,0,0-5.29-6.76L4,1,2,0V13.82a10,10,0,0,0,5.53,8.94L10,24h4.47L8.42,20.98A8,8,0,0,1,4,13.82V3.24L35.58,19.02A8,8,0,0,1,39.7,24ZM78,24l2.47-1.24A10,10,0,0,0,86,13.82V0L84,1,51.53,17.24A10,10,0,0,0,46.24,24H48.3a8,8,0,0,1,4.12-4.98L84,3.24V13.82a8,8,0,0,1-4.42,7.16L73.53,24ZM78,0,48,15l-2,1V2.18A10.005,10.005,0,0,1,46.241,0L48.3,0A8,8,0,0,0,48,2.18V12.76L73.53,0Z"/></g><g transform="translate(-7374 -10847.998)"><path class="c" d="M10,0,40,15l2,1V2.18A10.005,10.005,0,0,0,41.76,0L39.7,0A8,8,0,0,1,40,2.18V12.76L14.47,0ZM41.76,24a10,10,0,0,0-5.29-6.76L4,1,2,0V13.82a10,10,0,0,0,5.53,8.94L10,24h4.47L8.42,20.98A8,8,0,0,1,4,13.82V3.24L35.58,19.02A8,8,0,0,1,39.7,24ZM78,24l2.47-1.24A10,10,0,0,0,86,13.82V0L84,1,51.53,17.24A10,10,0,0,0,46.24,24H48.3a8,8,0,0,1,4.12-4.98L84,3.24V13.82a8,8,0,0,1-4.42,7.16L73.53,24ZM78,0,48,15l-2,1V2.18A10.005,10.005,0,0,1,46.241,0L48.3,0A8,8,0,0,0,48,2.18V12.76L73.53,0Z"/></g><g transform="translate(-7286 -10847.998)"><path class="c" d="M10,0,40,15l2,1V2.18A10.005,10.005,0,0,0,41.76,0L39.7,0A8,8,0,0,1,40,2.18V12.76L14.47,0ZM41.76,24a10,10,0,0,0-5.29-6.76L4,1,2,0V13.82a10,10,0,0,0,5.53,8.94L10,24h4.47L8.42,20.98A8,8,0,0,1,4,13.82V3.24L35.58,19.02A8,8,0,0,1,39.7,24ZM78,24l2.47-1.24A10,10,0,0,0,86,13.82V0L84,1,51.53,17.24A10,10,0,0,0,46.24,24H48.3a8,8,0,0,1,4.12-4.98L84,3.24V13.82a8,8,0,0,1-4.42,7.16L73.53,24ZM78,0,48,15l-2,1V2.18A10.005,10.005,0,0,1,46.241,0L48.3,0A8,8,0,0,0,48,2.18V12.76L73.53,0Z"/></g><g transform="translate(-7198 -10847.998)"><path class="c" d="M10,0,40,15l2,1V2.18A10.005,10.005,0,0,0,41.76,0L39.7,0A8,8,0,0,1,40,2.18V12.76L14.47,0ZM41.76,24a10,10,0,0,0-5.29-6.76L4,1,2,0V13.82a10,10,0,0,0,5.53,8.94L10,24h4.47L8.42,20.98A8,8,0,0,1,4,13.82V3.24L35.58,19.02A8,8,0,0,1,39.7,24ZM78,24l2.47-1.24A10,10,0,0,0,86,13.82V0L84,1,51.53,17.24A10,10,0,0,0,46.24,24H48.3a8,8,0,0,1,4.12-4.98L84,3.24V13.82a8,8,0,0,1-4.42,7.16L73.53,24ZM78,0,48,15l-2,1V2.18A10.005,10.005,0,0,1,46.241,0L48.3,0A8,8,0,0,0,48,2.18V12.76L73.53,0Z"/></g><g transform="translate(-8430 -10823.998)"><path class="c" d="M10,0,40,15l2,1V2.18A10.005,10.005,0,0,0,41.76,0L39.7,0A8,8,0,0,1,40,2.18V12.76L14.47,0ZM41.76,24a10,10,0,0,0-5.29-6.76L4,1,2,0V13.82a10,10,0,0,0,5.53,8.94L10,24h4.47L8.42,20.98A8,8,0,0,1,4,13.82V3.24L35.58,19.02A8,8,0,0,1,39.7,24ZM78,24l2.47-1.24A10,10,0,0,0,86,13.82V0L84,1,51.53,17.24A10,10,0,0,0,46.24,24H48.3a8,8,0,0,1,4.12-4.98L84,3.24V13.82a8,8,0,0,1-4.42,7.16L73.53,24ZM78,0,48,15l-2,1V2.18A10.005,10.005,0,0,1,46.241,0L48.3,0A8,8,0,0,0,48,2.18V12.76L73.53,0Z"/></g><g transform="translate(-8342 -10823.998)"><path class="c" d="M10,0,40,15l2,1V2.18A10.005,10.005,0,0,0,41.76,0L39.7,0A8,8,0,0,1,40,2.18V12.76L14.47,0ZM41.76,24a10,10,0,0,0-5.29-6.76L4,1,2,0V13.82a10,10,0,0,0,5.53,8.94L10,24h4.47L8.42,20.98A8,8,0,0,1,4,13.82V3.24L35.58,19.02A8,8,0,0,1,39.7,24ZM78,24l2.47-1.24A10,10,0,0,0,86,13.82V0L84,1,51.53,17.24A10,10,0,0,0,46.24,24H48.3a8,8,0,0,1,4.12-4.98L84,3.24V13.82a8,8,0,0,1-4.42,7.16L73.53,24ZM78,0,48,15l-2,1V2.18A10.005,10.005,0,0,1,46.241,0L48.3,0A8,8,0,0,0,48,2.18V12.76L73.53,0Z"/></g><g transform="translate(-8254 -10823.998)"><path class="c" d="M10,0,40,15l2,1V2.18A10.005,10.005,0,0,0,41.76,0L39.7,0A8,8,0,0,1,40,2.18V12.76L14.47,0ZM41.76,24a10,10,0,0,0-5.29-6.76L4,1,2,0V13.82a10,10,0,0,0,5.53,8.94L10,24h4.47L8.42,20.98A8,8,0,0,1,4,13.82V3.24L35.58,19.02A8,8,0,0,1,39.7,24ZM78,24l2.47-1.24A10,10,0,0,0,86,13.82V0L84,1,51.53,17.24A10,10,0,0,0,46.24,24H48.3a8,8,0,0,1,4.12-4.98L84,3.24V13.82a8,8,0,0,1-4.42,7.16L73.53,24ZM78,0,48,15l-2,1V2.18A10.005,10.005,0,0,1,46.241,0L48.3,0A8,8,0,0,0,48,2.18V12.76L73.53,0Z"/></g><g transform="translate(-8166 -10823.998)"><path class="c" d="M10,0,40,15l2,1V2.18A10.005,10.005,0,0,0,41.76,0L39.7,0A8,8,0,0,1,40,2.18V12.76L14.47,0ZM41.76,24a10,10,0,0,0-5.29-6.76L4,1,2,0V13.82a10,10,0,0,0,5.53,8.94L10,24h4.47L8.42,20.98A8,8,0,0,1,4,13.82V3.24L35.58,19.02A8,8,0,0,1,39.7,24ZM78,24l2.47-1.24A10,10,0,0,0,86,13.82V0L84,1,51.53,17.24A10,10,0,0,0,46.24,24H48.3a8,8,0,0,1,4.12-4.98L84,3.24V13.82a8,8,0,0,1-4.42,7.16L73.53,24ZM78,0,48,15l-2,1V2.18A10.005,10.005,0,0,1,46.241,0L48.3,0A8,8,0,0,0,48,2.18V12.76L73.53,0Z"/></g><g transform="translate(-8078 -10823.998)"><path class="c" d="M10,0,40,15l2,1V2.18A10.005,10.005,0,0,0,41.76,0L39.7,0A8,8,0,0,1,40,2.18V12.76L14.47,0ZM41.76,24a10,10,0,0,0-5.29-6.76L4,1,2,0V13.82a10,10,0,0,0,5.53,8.94L10,24h4.47L8.42,20.98A8,8,0,0,1,4,13.82V3.24L35.58,19.02A8,8,0,0,1,39.7,24ZM78,24l2.47-1.24A10,10,0,0,0,86,13.82V0L84,1,51.53,17.24A10,10,0,0,0,46.24,24H48.3a8,8,0,0,1,4.12-4.98L84,3.24V13.82a8,8,0,0,1-4.42,7.16L73.53,24ZM78,0,48,15l-2,1V2.18A10.005,10.005,0,0,1,46.241,0L48.3,0A8,8,0,0,0,48,2.18V12.76L73.53,0Z"/></g><g transform="translate(-7990 -10823.998)"><path class="c" d="M10,0,40,15l2,1V2.18A10.005,10.005,0,0,0,41.76,0L39.7,0A8,8,0,0,1,40,2.18V12.76L14.47,0ZM41.76,24a10,10,0,0,0-5.29-6.76L4,1,2,0V13.82a10,10,0,0,0,5.53,8.94L10,24h4.47L8.42,20.98A8,8,0,0,1,4,13.82V3.24L35.58,19.02A8,8,0,0,1,39.7,24ZM78,24l2.47-1.24A10,10,0,0,0,86,13.82V0L84,1,51.53,17.24A10,10,0,0,0,46.24,24H48.3a8,8,0,0,1,4.12-4.98L84,3.24V13.82a8,8,0,0,1-4.42,7.16L73.53,24ZM78,0,48,15l-2,1V2.18A10.005,10.005,0,0,1,46.241,0L48.3,0A8,8,0,0,0,48,2.18V12.76L73.53,0Z"/></g><g transform="translate(-7902 -10823.998)"><path class="c" d="M10,0,40,15l2,1V2.18A10.005,10.005,0,0,0,41.76,0L39.7,0A8,8,0,0,1,40,2.18V12.76L14.47,0ZM41.76,24a10,10,0,0,0-5.29-6.76L4,1,2,0V13.82a10,10,0,0,0,5.53,8.94L10,24h4.47L8.42,20.98A8,8,0,0,1,4,13.82V3.24L35.58,19.02A8,8,0,0,1,39.7,24ZM78,24l2.47-1.24A10,10,0,0,0,86,13.82V0L84,1,51.53,17.24A10,10,0,0,0,46.24,24H48.3a8,8,0,0,1,4.12-4.98L84,3.24V13.82a8,8,0,0,1-4.42,7.16L73.53,24ZM78,0,48,15l-2,1V2.18A10.005,10.005,0,0,1,46.241,0L48.3,0A8,8,0,0,0,48,2.18V12.76L73.53,0Z"/></g><g transform="translate(-7814 -10823.998)"><path class="c" d="M10,0,40,15l2,1V2.18A10.005,10.005,0,0,0,41.76,0L39.7,0A8,8,0,0,1,40,2.18V12.76L14.47,0ZM41.76,24a10,10,0,0,0-5.29-6.76L4,1,2,0V13.82a10,10,0,0,0,5.53,8.94L10,24h4.47L8.42,20.98A8,8,0,0,1,4,13.82V3.24L35.58,19.02A8,8,0,0,1,39.7,24ZM78,24l2.47-1.24A10,10,0,0,0,86,13.82V0L84,1,51.53,17.24A10,10,0,0,0,46.24,24H48.3a8,8,0,0,1,4.12-4.98L84,3.24V13.82a8,8,0,0,1-4.42,7.16L73.53,24ZM78,0,48,15l-2,1V2.18A10.005,10.005,0,0,1,46.241,0L48.3,0A8,8,0,0,0,48,2.18V12.76L73.53,0Z"/></g><g transform="translate(-7726 -10823.998)"><path class="c" d="M10,0,40,15l2,1V2.18A10.005,10.005,0,0,0,41.76,0L39.7,0A8,8,0,0,1,40,2.18V12.76L14.47,0ZM41.76,24a10,10,0,0,0-5.29-6.76L4,1,2,0V13.82a10,10,0,0,0,5.53,8.94L10,24h4.47L8.42,20.98A8,8,0,0,1,4,13.82V3.24L35.58,19.02A8,8,0,0,1,39.7,24ZM78,24l2.47-1.24A10,10,0,0,0,86,13.82V0L84,1,51.53,17.24A10,10,0,0,0,46.24,24H48.3a8,8,0,0,1,4.12-4.98L84,3.24V13.82a8,8,0,0,1-4.42,7.16L73.53,24ZM78,0,48,15l-2,1V2.18A10.005,10.005,0,0,1,46.241,0L48.3,0A8,8,0,0,0,48,2.18V12.76L73.53,0Z"/></g><g transform="translate(-7638 -10823.998)"><path class="c" d="M10,0,40,15l2,1V2.18A10.005,10.005,0,0,0,41.76,0L39.7,0A8,8,0,0,1,40,2.18V12.76L14.47,0ZM41.76,24a10,10,0,0,0-5.29-6.76L4,1,2,0V13.82a10,10,0,0,0,5.53,8.94L10,24h4.47L8.42,20.98A8,8,0,0,1,4,13.82V3.24L35.58,19.02A8,8,0,0,1,39.7,24ZM78,24l2.47-1.24A10,10,0,0,0,86,13.82V0L84,1,51.53,17.24A10,10,0,0,0,46.24,24H48.3a8,8,0,0,1,4.12-4.98L84,3.24V13.82a8,8,0,0,1-4.42,7.16L73.53,24ZM78,0,48,15l-2,1V2.18A10.005,10.005,0,0,1,46.241,0L48.3,0A8,8,0,0,0,48,2.18V12.76L73.53,0Z"/></g><g transform="translate(-7550 -10823.998)"><path class="c" d="M10,0,40,15l2,1V2.18A10.005,10.005,0,0,0,41.76,0L39.7,0A8,8,0,0,1,40,2.18V12.76L14.47,0ZM41.76,24a10,10,0,0,0-5.29-6.76L4,1,2,0V13.82a10,10,0,0,0,5.53,8.94L10,24h4.47L8.42,20.98A8,8,0,0,1,4,13.82V3.24L35.58,19.02A8,8,0,0,1,39.7,24ZM78,24l2.47-1.24A10,10,0,0,0,86,13.82V0L84,1,51.53,17.24A10,10,0,0,0,46.24,24H48.3a8,8,0,0,1,4.12-4.98L84,3.24V13.82a8,8,0,0,1-4.42,7.16L73.53,24ZM78,0,48,15l-2,1V2.18A10.005,10.005,0,0,1,46.241,0L48.3,0A8,8,0,0,0,48,2.18V12.76L73.53,0Z"/></g><g transform="translate(-7462 -10823.998)"><path class="c" d="M10,0,40,15l2,1V2.18A10.005,10.005,0,0,0,41.76,0L39.7,0A8,8,0,0,1,40,2.18V12.76L14.47,0ZM41.76,24a10,10,0,0,0-5.29-6.76L4,1,2,0V13.82a10,10,0,0,0,5.53,8.94L10,24h4.47L8.42,20.98A8,8,0,0,1,4,13.82V3.24L35.58,19.02A8,8,0,0,1,39.7,24ZM78,24l2.47-1.24A10,10,0,0,0,86,13.82V0L84,1,51.53,17.24A10,10,0,0,0,46.24,24H48.3a8,8,0,0,1,4.12-4.98L84,3.24V13.82a8,8,0,0,1-4.42,7.16L73.53,24ZM78,0,48,15l-2,1V2.18A10.005,10.005,0,0,1,46.241,0L48.3,0A8,8,0,0,0,48,2.18V12.76L73.53,0Z"/></g><g transform="translate(-7374 -10823.998)"><path class="c" d="M10,0,40,15l2,1V2.18A10.005,10.005,0,0,0,41.76,0L39.7,0A8,8,0,0,1,40,2.18V12.76L14.47,0ZM41.76,24a10,10,0,0,0-5.29-6.76L4,1,2,0V13.82a10,10,0,0,0,5.53,8.94L10,24h4.47L8.42,20.98A8,8,0,0,1,4,13.82V3.24L35.58,19.02A8,8,0,0,1,39.7,24ZM78,24l2.47-1.24A10,10,0,0,0,86,13.82V0L84,1,51.53,17.24A10,10,0,0,0,46.24,24H48.3a8,8,0,0,1,4.12-4.98L84,3.24V13.82a8,8,0,0,1-4.42,7.16L73.53,24ZM78,0,48,15l-2,1V2.18A10.005,10.005,0,0,1,46.241,0L48.3,0A8,8,0,0,0,48,2.18V12.76L73.53,0Z"/></g><g transform="translate(-7286 -10823.998)"><path class="c" d="M10,0,40,15l2,1V2.18A10.005,10.005,0,0,0,41.76,0L39.7,0A8,8,0,0,1,40,2.18V12.76L14.47,0ZM41.76,24a10,10,0,0,0-5.29-6.76L4,1,2,0V13.82a10,10,0,0,0,5.53,8.94L10,24h4.47L8.42,20.98A8,8,0,0,1,4,13.82V3.24L35.58,19.02A8,8,0,0,1,39.7,24ZM78,24l2.47-1.24A10,10,0,0,0,86,13.82V0L84,1,51.53,17.24A10,10,0,0,0,46.24,24H48.3a8,8,0,0,1,4.12-4.98L84,3.24V13.82a8,8,0,0,1-4.42,7.16L73.53,24ZM78,0,48,15l-2,1V2.18A10.005,10.005,0,0,1,46.241,0L48.3,0A8,8,0,0,0,48,2.18V12.76L73.53,0Z"/></g><g transform="translate(-7198 -10823.998)"><path class="c" d="M10,0,40,15l2,1V2.18A10.005,10.005,0,0,0,41.76,0L39.7,0A8,8,0,0,1,40,2.18V12.76L14.47,0ZM41.76,24a10,10,0,0,0-5.29-6.76L4,1,2,0V13.82a10,10,0,0,0,5.53,8.94L10,24h4.47L8.42,20.98A8,8,0,0,1,4,13.82V3.24L35.58,19.02A8,8,0,0,1,39.7,24ZM78,24l2.47-1.24A10,10,0,0,0,86,13.82V0L84,1,51.53,17.24A10,10,0,0,0,46.24,24H48.3a8,8,0,0,1,4.12-4.98L84,3.24V13.82a8,8,0,0,1-4.42,7.16L73.53,24ZM78,0,48,15l-2,1V2.18A10.005,10.005,0,0,1,46.241,0L48.3,0A8,8,0,0,0,48,2.18V12.76L73.53,0Z"/></g><g transform="translate(-8430 -10799.998)"><path class="c" d="M10,0,40,15l2,1V2.18A10.005,10.005,0,0,0,41.76,0L39.7,0A8,8,0,0,1,40,2.18V12.76L14.47,0ZM41.76,24a10,10,0,0,0-5.29-6.76L4,1,2,0V13.82a10,10,0,0,0,5.53,8.94L10,24h4.47L8.42,20.98A8,8,0,0,1,4,13.82V3.24L35.58,19.02A8,8,0,0,1,39.7,24ZM78,24l2.47-1.24A10,10,0,0,0,86,13.82V0L84,1,51.53,17.24A10,10,0,0,0,46.24,24H48.3a8,8,0,0,1,4.12-4.98L84,3.24V13.82a8,8,0,0,1-4.42,7.16L73.53,24ZM78,0,48,15l-2,1V2.18A10.005,10.005,0,0,1,46.241,0L48.3,0A8,8,0,0,0,48,2.18V12.76L73.53,0Z"/></g><g transform="translate(-8342 -10799.998)"><path class="c" d="M10,0,40,15l2,1V2.18A10.005,10.005,0,0,0,41.76,0L39.7,0A8,8,0,0,1,40,2.18V12.76L14.47,0ZM41.76,24a10,10,0,0,0-5.29-6.76L4,1,2,0V13.82a10,10,0,0,0,5.53,8.94L10,24h4.47L8.42,20.98A8,8,0,0,1,4,13.82V3.24L35.58,19.02A8,8,0,0,1,39.7,24ZM78,24l2.47-1.24A10,10,0,0,0,86,13.82V0L84,1,51.53,17.24A10,10,0,0,0,46.24,24H48.3a8,8,0,0,1,4.12-4.98L84,3.24V13.82a8,8,0,0,1-4.42,7.16L73.53,24ZM78,0,48,15l-2,1V2.18A10.005,10.005,0,0,1,46.241,0L48.3,0A8,8,0,0,0,48,2.18V12.76L73.53,0Z"/></g><g transform="translate(-8254 -10799.998)"><path class="c" d="M10,0,40,15l2,1V2.18A10.005,10.005,0,0,0,41.76,0L39.7,0A8,8,0,0,1,40,2.18V12.76L14.47,0ZM41.76,24a10,10,0,0,0-5.29-6.76L4,1,2,0V13.82a10,10,0,0,0,5.53,8.94L10,24h4.47L8.42,20.98A8,8,0,0,1,4,13.82V3.24L35.58,19.02A8,8,0,0,1,39.7,24ZM78,24l2.47-1.24A10,10,0,0,0,86,13.82V0L84,1,51.53,17.24A10,10,0,0,0,46.24,24H48.3a8,8,0,0,1,4.12-4.98L84,3.24V13.82a8,8,0,0,1-4.42,7.16L73.53,24ZM78,0,48,15l-2,1V2.18A10.005,10.005,0,0,1,46.241,0L48.3,0A8,8,0,0,0,48,2.18V12.76L73.53,0Z"/></g><g transform="translate(-8166 -10799.998)"><path class="c" d="M10,0,40,15l2,1V2.18A10.005,10.005,0,0,0,41.76,0L39.7,0A8,8,0,0,1,40,2.18V12.76L14.47,0ZM41.76,24a10,10,0,0,0-5.29-6.76L4,1,2,0V13.82a10,10,0,0,0,5.53,8.94L10,24h4.47L8.42,20.98A8,8,0,0,1,4,13.82V3.24L35.58,19.02A8,8,0,0,1,39.7,24ZM78,24l2.47-1.24A10,10,0,0,0,86,13.82V0L84,1,51.53,17.24A10,10,0,0,0,46.24,24H48.3a8,8,0,0,1,4.12-4.98L84,3.24V13.82a8,8,0,0,1-4.42,7.16L73.53,24ZM78,0,48,15l-2,1V2.18A10.005,10.005,0,0,1,46.241,0L48.3,0A8,8,0,0,0,48,2.18V12.76L73.53,0Z"/></g><g transform="translate(-8078 -10799.998)"><path class="c" d="M10,0,40,15l2,1V2.18A10.005,10.005,0,0,0,41.76,0L39.7,0A8,8,0,0,1,40,2.18V12.76L14.47,0ZM41.76,24a10,10,0,0,0-5.29-6.76L4,1,2,0V13.82a10,10,0,0,0,5.53,8.94L10,24h4.47L8.42,20.98A8,8,0,0,1,4,13.82V3.24L35.58,19.02A8,8,0,0,1,39.7,24ZM78,24l2.47-1.24A10,10,0,0,0,86,13.82V0L84,1,51.53,17.24A10,10,0,0,0,46.24,24H48.3a8,8,0,0,1,4.12-4.98L84,3.24V13.82a8,8,0,0,1-4.42,7.16L73.53,24ZM78,0,48,15l-2,1V2.18A10.005,10.005,0,0,1,46.241,0L48.3,0A8,8,0,0,0,48,2.18V12.76L73.53,0Z"/></g><g transform="translate(-7990 -10799.998)"><path class="c" d="M10,0,40,15l2,1V2.18A10.005,10.005,0,0,0,41.76,0L39.7,0A8,8,0,0,1,40,2.18V12.76L14.47,0ZM41.76,24a10,10,0,0,0-5.29-6.76L4,1,2,0V13.82a10,10,0,0,0,5.53,8.94L10,24h4.47L8.42,20.98A8,8,0,0,1,4,13.82V3.24L35.58,19.02A8,8,0,0,1,39.7,24ZM78,24l2.47-1.24A10,10,0,0,0,86,13.82V0L84,1,51.53,17.24A10,10,0,0,0,46.24,24H48.3a8,8,0,0,1,4.12-4.98L84,3.24V13.82a8,8,0,0,1-4.42,7.16L73.53,24ZM78,0,48,15l-2,1V2.18A10.005,10.005,0,0,1,46.241,0L48.3,0A8,8,0,0,0,48,2.18V12.76L73.53,0Z"/></g><g transform="translate(-7902 -10799.998)"><path class="c" d="M10,0,40,15l2,1V2.18A10.005,10.005,0,0,0,41.76,0L39.7,0A8,8,0,0,1,40,2.18V12.76L14.47,0ZM41.76,24a10,10,0,0,0-5.29-6.76L4,1,2,0V13.82a10,10,0,0,0,5.53,8.94L10,24h4.47L8.42,20.98A8,8,0,0,1,4,13.82V3.24L35.58,19.02A8,8,0,0,1,39.7,24ZM78,24l2.47-1.24A10,10,0,0,0,86,13.82V0L84,1,51.53,17.24A10,10,0,0,0,46.24,24H48.3a8,8,0,0,1,4.12-4.98L84,3.24V13.82a8,8,0,0,1-4.42,7.16L73.53,24ZM78,0,48,15l-2,1V2.18A10.005,10.005,0,0,1,46.241,0L48.3,0A8,8,0,0,0,48,2.18V12.76L73.53,0Z"/></g><g transform="translate(-7814 -10799.998)"><path class="c" d="M10,0,40,15l2,1V2.18A10.005,10.005,0,0,0,41.76,0L39.7,0A8,8,0,0,1,40,2.18V12.76L14.47,0ZM41.76,24a10,10,0,0,0-5.29-6.76L4,1,2,0V13.82a10,10,0,0,0,5.53,8.94L10,24h4.47L8.42,20.98A8,8,0,0,1,4,13.82V3.24L35.58,19.02A8,8,0,0,1,39.7,24ZM78,24l2.47-1.24A10,10,0,0,0,86,13.82V0L84,1,51.53,17.24A10,10,0,0,0,46.24,24H48.3a8,8,0,0,1,4.12-4.98L84,3.24V13.82a8,8,0,0,1-4.42,7.16L73.53,24ZM78,0,48,15l-2,1V2.18A10.005,10.005,0,0,1,46.241,0L48.3,0A8,8,0,0,0,48,2.18V12.76L73.53,0Z"/></g><g transform="translate(-7726 -10799.998)"><path class="c" d="M10,0,40,15l2,1V2.18A10.005,10.005,0,0,0,41.76,0L39.7,0A8,8,0,0,1,40,2.18V12.76L14.47,0ZM41.76,24a10,10,0,0,0-5.29-6.76L4,1,2,0V13.82a10,10,0,0,0,5.53,8.94L10,24h4.47L8.42,20.98A8,8,0,0,1,4,13.82V3.24L35.58,19.02A8,8,0,0,1,39.7,24ZM78,24l2.47-1.24A10,10,0,0,0,86,13.82V0L84,1,51.53,17.24A10,10,0,0,0,46.24,24H48.3a8,8,0,0,1,4.12-4.98L84,3.24V13.82a8,8,0,0,1-4.42,7.16L73.53,24ZM78,0,48,15l-2,1V2.18A10.005,10.005,0,0,1,46.241,0L48.3,0A8,8,0,0,0,48,2.18V12.76L73.53,0Z"/></g><g transform="translate(-7638 -10799.998)"><path class="c" d="M10,0,40,15l2,1V2.18A10.005,10.005,0,0,0,41.76,0L39.7,0A8,8,0,0,1,40,2.18V12.76L14.47,0ZM41.76,24a10,10,0,0,0-5.29-6.76L4,1,2,0V13.82a10,10,0,0,0,5.53,8.94L10,24h4.47L8.42,20.98A8,8,0,0,1,4,13.82V3.24L35.58,19.02A8,8,0,0,1,39.7,24ZM78,24l2.47-1.24A10,10,0,0,0,86,13.82V0L84,1,51.53,17.24A10,10,0,0,0,46.24,24H48.3a8,8,0,0,1,4.12-4.98L84,3.24V13.82a8,8,0,0,1-4.42,7.16L73.53,24ZM78,0,48,15l-2,1V2.18A10.005,10.005,0,0,1,46.241,0L48.3,0A8,8,0,0,0,48,2.18V12.76L73.53,0Z"/></g><g transform="translate(-7550 -10799.998)"><path class="c" d="M10,0,40,15l2,1V2.18A10.005,10.005,0,0,0,41.76,0L39.7,0A8,8,0,0,1,40,2.18V12.76L14.47,0ZM41.76,24a10,10,0,0,0-5.29-6.76L4,1,2,0V13.82a10,10,0,0,0,5.53,8.94L10,24h4.47L8.42,20.98A8,8,0,0,1,4,13.82V3.24L35.58,19.02A8,8,0,0,1,39.7,24ZM78,24l2.47-1.24A10,10,0,0,0,86,13.82V0L84,1,51.53,17.24A10,10,0,0,0,46.24,24H48.3a8,8,0,0,1,4.12-4.98L84,3.24V13.82a8,8,0,0,1-4.42,7.16L73.53,24ZM78,0,48,15l-2,1V2.18A10.005,10.005,0,0,1,46.241,0L48.3,0A8,8,0,0,0,48,2.18V12.76L73.53,0Z"/></g><g transform="translate(-7462 -10799.998)"><path class="c" d="M10,0,40,15l2,1V2.18A10.005,10.005,0,0,0,41.76,0L39.7,0A8,8,0,0,1,40,2.18V12.76L14.47,0ZM41.76,24a10,10,0,0,0-5.29-6.76L4,1,2,0V13.82a10,10,0,0,0,5.53,8.94L10,24h4.47L8.42,20.98A8,8,0,0,1,4,13.82V3.24L35.58,19.02A8,8,0,0,1,39.7,24ZM78,24l2.47-1.24A10,10,0,0,0,86,13.82V0L84,1,51.53,17.24A10,10,0,0,0,46.24,24H48.3a8,8,0,0,1,4.12-4.98L84,3.24V13.82a8,8,0,0,1-4.42,7.16L73.53,24ZM78,0,48,15l-2,1V2.18A10.005,10.005,0,0,1,46.241,0L48.3,0A8,8,0,0,0,48,2.18V12.76L73.53,0Z"/></g><g transform="translate(-7374 -10799.998)"><path class="c" d="M10,0,40,15l2,1V2.18A10.005,10.005,0,0,0,41.76,0L39.7,0A8,8,0,0,1,40,2.18V12.76L14.47,0ZM41.76,24a10,10,0,0,0-5.29-6.76L4,1,2,0V13.82a10,10,0,0,0,5.53,8.94L10,24h4.47L8.42,20.98A8,8,0,0,1,4,13.82V3.24L35.58,19.02A8,8,0,0,1,39.7,24ZM78,24l2.47-1.24A10,10,0,0,0,86,13.82V0L84,1,51.53,17.24A10,10,0,0,0,46.24,24H48.3a8,8,0,0,1,4.12-4.98L84,3.24V13.82a8,8,0,0,1-4.42,7.16L73.53,24ZM78,0,48,15l-2,1V2.18A10.005,10.005,0,0,1,46.241,0L48.3,0A8,8,0,0,0,48,2.18V12.76L73.53,0Z"/></g><g transform="translate(-7286 -10799.998)"><path class="c" d="M10,0,40,15l2,1V2.18A10.005,10.005,0,0,0,41.76,0L39.7,0A8,8,0,0,1,40,2.18V12.76L14.47,0ZM41.76,24a10,10,0,0,0-5.29-6.76L4,1,2,0V13.82a10,10,0,0,0,5.53,8.94L10,24h4.47L8.42,20.98A8,8,0,0,1,4,13.82V3.24L35.58,19.02A8,8,0,0,1,39.7,24ZM78,24l2.47-1.24A10,10,0,0,0,86,13.82V0L84,1,51.53,17.24A10,10,0,0,0,46.24,24H48.3a8,8,0,0,1,4.12-4.98L84,3.24V13.82a8,8,0,0,1-4.42,7.16L73.53,24ZM78,0,48,15l-2,1V2.18A10.005,10.005,0,0,1,46.241,0L48.3,0A8,8,0,0,0,48,2.18V12.76L73.53,0Z"/></g><g transform="translate(-7198 -10799.998)"><path class="c" d="M10,0,40,15l2,1V2.18A10.005,10.005,0,0,0,41.76,0L39.7,0A8,8,0,0,1,40,2.18V12.76L14.47,0ZM41.76,24a10,10,0,0,0-5.29-6.76L4,1,2,0V13.82a10,10,0,0,0,5.53,8.94L10,24h4.47L8.42,20.98A8,8,0,0,1,4,13.82V3.24L35.58,19.02A8,8,0,0,1,39.7,24ZM78,24l2.47-1.24A10,10,0,0,0,86,13.82V0L84,1,51.53,17.24A10,10,0,0,0,46.24,24H48.3a8,8,0,0,1,4.12-4.98L84,3.24V13.82a8,8,0,0,1-4.42,7.16L73.53,24ZM78,0,48,15l-2,1V2.18A10.005,10.005,0,0,1,46.241,0L48.3,0A8,8,0,0,0,48,2.18V12.76L73.53,0Z"/></g><g transform="translate(-8430 -10775.998)"><path class="c" d="M10,0,40,15l2,1V2.18A10.005,10.005,0,0,0,41.76,0L39.7,0A8,8,0,0,1,40,2.18V12.76L14.47,0ZM41.76,24a10,10,0,0,0-5.29-6.76L4,1,2,0V13.82a10,10,0,0,0,5.53,8.94L10,24h4.47L8.42,20.98A8,8,0,0,1,4,13.82V3.24L35.58,19.02A8,8,0,0,1,39.7,24ZM78,24l2.47-1.24A10,10,0,0,0,86,13.82V0L84,1,51.53,17.24A10,10,0,0,0,46.24,24H48.3a8,8,0,0,1,4.12-4.98L84,3.24V13.82a8,8,0,0,1-4.42,7.16L73.53,24ZM78,0,48,15l-2,1V2.18A10.005,10.005,0,0,1,46.241,0L48.3,0A8,8,0,0,0,48,2.18V12.76L73.53,0Z"/></g><g transform="translate(-8342 -10775.998)"><path class="c" d="M10,0,40,15l2,1V2.18A10.005,10.005,0,0,0,41.76,0L39.7,0A8,8,0,0,1,40,2.18V12.76L14.47,0ZM41.76,24a10,10,0,0,0-5.29-6.76L4,1,2,0V13.82a10,10,0,0,0,5.53,8.94L10,24h4.47L8.42,20.98A8,8,0,0,1,4,13.82V3.24L35.58,19.02A8,8,0,0,1,39.7,24ZM78,24l2.47-1.24A10,10,0,0,0,86,13.82V0L84,1,51.53,17.24A10,10,0,0,0,46.24,24H48.3a8,8,0,0,1,4.12-4.98L84,3.24V13.82a8,8,0,0,1-4.42,7.16L73.53,24ZM78,0,48,15l-2,1V2.18A10.005,10.005,0,0,1,46.241,0L48.3,0A8,8,0,0,0,48,2.18V12.76L73.53,0Z"/></g><g transform="translate(-8254 -10775.998)"><path class="c" d="M10,0,40,15l2,1V2.18A10.005,10.005,0,0,0,41.76,0L39.7,0A8,8,0,0,1,40,2.18V12.76L14.47,0ZM41.76,24a10,10,0,0,0-5.29-6.76L4,1,2,0V13.82a10,10,0,0,0,5.53,8.94L10,24h4.47L8.42,20.98A8,8,0,0,1,4,13.82V3.24L35.58,19.02A8,8,0,0,1,39.7,24ZM78,24l2.47-1.24A10,10,0,0,0,86,13.82V0L84,1,51.53,17.24A10,10,0,0,0,46.24,24H48.3a8,8,0,0,1,4.12-4.98L84,3.24V13.82a8,8,0,0,1-4.42,7.16L73.53,24ZM78,0,48,15l-2,1V2.18A10.005,10.005,0,0,1,46.241,0L48.3,0A8,8,0,0,0,48,2.18V12.76L73.53,0Z"/></g><g transform="translate(-8166 -10775.998)"><path class="c" d="M10,0,40,15l2,1V2.18A10.005,10.005,0,0,0,41.76,0L39.7,0A8,8,0,0,1,40,2.18V12.76L14.47,0ZM41.76,24a10,10,0,0,0-5.29-6.76L4,1,2,0V13.82a10,10,0,0,0,5.53,8.94L10,24h4.47L8.42,20.98A8,8,0,0,1,4,13.82V3.24L35.58,19.02A8,8,0,0,1,39.7,24ZM78,24l2.47-1.24A10,10,0,0,0,86,13.82V0L84,1,51.53,17.24A10,10,0,0,0,46.24,24H48.3a8,8,0,0,1,4.12-4.98L84,3.24V13.82a8,8,0,0,1-4.42,7.16L73.53,24ZM78,0,48,15l-2,1V2.18A10.005,10.005,0,0,1,46.241,0L48.3,0A8,8,0,0,0,48,2.18V12.76L73.53,0Z"/></g><g transform="translate(-8078 -10775.998)"><path class="c" d="M10,0,40,15l2,1V2.18A10.005,10.005,0,0,0,41.76,0L39.7,0A8,8,0,0,1,40,2.18V12.76L14.47,0ZM41.76,24a10,10,0,0,0-5.29-6.76L4,1,2,0V13.82a10,10,0,0,0,5.53,8.94L10,24h4.47L8.42,20.98A8,8,0,0,1,4,13.82V3.24L35.58,19.02A8,8,0,0,1,39.7,24ZM78,24l2.47-1.24A10,10,0,0,0,86,13.82V0L84,1,51.53,17.24A10,10,0,0,0,46.24,24H48.3a8,8,0,0,1,4.12-4.98L84,3.24V13.82a8,8,0,0,1-4.42,7.16L73.53,24ZM78,0,48,15l-2,1V2.18A10.005,10.005,0,0,1,46.241,0L48.3,0A8,8,0,0,0,48,2.18V12.76L73.53,0Z"/></g><g transform="translate(-7990 -10775.998)"><path class="c" d="M10,0,40,15l2,1V2.18A10.005,10.005,0,0,0,41.76,0L39.7,0A8,8,0,0,1,40,2.18V12.76L14.47,0ZM41.76,24a10,10,0,0,0-5.29-6.76L4,1,2,0V13.82a10,10,0,0,0,5.53,8.94L10,24h4.47L8.42,20.98A8,8,0,0,1,4,13.82V3.24L35.58,19.02A8,8,0,0,1,39.7,24ZM78,24l2.47-1.24A10,10,0,0,0,86,13.82V0L84,1,51.53,17.24A10,10,0,0,0,46.24,24H48.3a8,8,0,0,1,4.12-4.98L84,3.24V13.82a8,8,0,0,1-4.42,7.16L73.53,24ZM78,0,48,15l-2,1V2.18A10.005,10.005,0,0,1,46.241,0L48.3,0A8,8,0,0,0,48,2.18V12.76L73.53,0Z"/></g><g transform="translate(-7902 -10775.998)"><path class="c" d="M10,0,40,15l2,1V2.18A10.005,10.005,0,0,0,41.76,0L39.7,0A8,8,0,0,1,40,2.18V12.76L14.47,0ZM41.76,24a10,10,0,0,0-5.29-6.76L4,1,2,0V13.82a10,10,0,0,0,5.53,8.94L10,24h4.47L8.42,20.98A8,8,0,0,1,4,13.82V3.24L35.58,19.02A8,8,0,0,1,39.7,24ZM78,24l2.47-1.24A10,10,0,0,0,86,13.82V0L84,1,51.53,17.24A10,10,0,0,0,46.24,24H48.3a8,8,0,0,1,4.12-4.98L84,3.24V13.82a8,8,0,0,1-4.42,7.16L73.53,24ZM78,0,48,15l-2,1V2.18A10.005,10.005,0,0,1,46.241,0L48.3,0A8,8,0,0,0,48,2.18V12.76L73.53,0Z"/></g><g transform="translate(-7814 -10775.998)"><path class="c" d="M10,0,40,15l2,1V2.18A10.005,10.005,0,0,0,41.76,0L39.7,0A8,8,0,0,1,40,2.18V12.76L14.47,0ZM41.76,24a10,10,0,0,0-5.29-6.76L4,1,2,0V13.82a10,10,0,0,0,5.53,8.94L10,24h4.47L8.42,20.98A8,8,0,0,1,4,13.82V3.24L35.58,19.02A8,8,0,0,1,39.7,24ZM78,24l2.47-1.24A10,10,0,0,0,86,13.82V0L84,1,51.53,17.24A10,10,0,0,0,46.24,24H48.3a8,8,0,0,1,4.12-4.98L84,3.24V13.82a8,8,0,0,1-4.42,7.16L73.53,24ZM78,0,48,15l-2,1V2.18A10.005,10.005,0,0,1,46.241,0L48.3,0A8,8,0,0,0,48,2.18V12.76L73.53,0Z"/></g><g transform="translate(-7726 -10775.998)"><path class="c" d="M10,0,40,15l2,1V2.18A10.005,10.005,0,0,0,41.76,0L39.7,0A8,8,0,0,1,40,2.18V12.76L14.47,0ZM41.76,24a10,10,0,0,0-5.29-6.76L4,1,2,0V13.82a10,10,0,0,0,5.53,8.94L10,24h4.47L8.42,20.98A8,8,0,0,1,4,13.82V3.24L35.58,19.02A8,8,0,0,1,39.7,24ZM78,24l2.47-1.24A10,10,0,0,0,86,13.82V0L84,1,51.53,17.24A10,10,0,0,0,46.24,24H48.3a8,8,0,0,1,4.12-4.98L84,3.24V13.82a8,8,0,0,1-4.42,7.16L73.53,24ZM78,0,48,15l-2,1V2.18A10.005,10.005,0,0,1,46.241,0L48.3,0A8,8,0,0,0,48,2.18V12.76L73.53,0Z"/></g><g transform="translate(-7638 -10775.998)"><path class="c" d="M10,0,40,15l2,1V2.18A10.005,10.005,0,0,0,41.76,0L39.7,0A8,8,0,0,1,40,2.18V12.76L14.47,0ZM41.76,24a10,10,0,0,0-5.29-6.76L4,1,2,0V13.82a10,10,0,0,0,5.53,8.94L10,24h4.47L8.42,20.98A8,8,0,0,1,4,13.82V3.24L35.58,19.02A8,8,0,0,1,39.7,24ZM78,24l2.47-1.24A10,10,0,0,0,86,13.82V0L84,1,51.53,17.24A10,10,0,0,0,46.24,24H48.3a8,8,0,0,1,4.12-4.98L84,3.24V13.82a8,8,0,0,1-4.42,7.16L73.53,24ZM78,0,48,15l-2,1V2.18A10.005,10.005,0,0,1,46.241,0L48.3,0A8,8,0,0,0,48,2.18V12.76L73.53,0Z"/></g><g transform="translate(-7550 -10775.998)"><path class="c" d="M10,0,40,15l2,1V2.18A10.005,10.005,0,0,0,41.76,0L39.7,0A8,8,0,0,1,40,2.18V12.76L14.47,0ZM41.76,24a10,10,0,0,0-5.29-6.76L4,1,2,0V13.82a10,10,0,0,0,5.53,8.94L10,24h4.47L8.42,20.98A8,8,0,0,1,4,13.82V3.24L35.58,19.02A8,8,0,0,1,39.7,24ZM78,24l2.47-1.24A10,10,0,0,0,86,13.82V0L84,1,51.53,17.24A10,10,0,0,0,46.24,24H48.3a8,8,0,0,1,4.12-4.98L84,3.24V13.82a8,8,0,0,1-4.42,7.16L73.53,24ZM78,0,48,15l-2,1V2.18A10.005,10.005,0,0,1,46.241,0L48.3,0A8,8,0,0,0,48,2.18V12.76L73.53,0Z"/></g><g transform="translate(-7462 -10775.998)"><path class="c" d="M10,0,40,15l2,1V2.18A10.005,10.005,0,0,0,41.76,0L39.7,0A8,8,0,0,1,40,2.18V12.76L14.47,0ZM41.76,24a10,10,0,0,0-5.29-6.76L4,1,2,0V13.82a10,10,0,0,0,5.53,8.94L10,24h4.47L8.42,20.98A8,8,0,0,1,4,13.82V3.24L35.58,19.02A8,8,0,0,1,39.7,24ZM78,24l2.47-1.24A10,10,0,0,0,86,13.82V0L84,1,51.53,17.24A10,10,0,0,0,46.24,24H48.3a8,8,0,0,1,4.12-4.98L84,3.24V13.82a8,8,0,0,1-4.42,7.16L73.53,24ZM78,0,48,15l-2,1V2.18A10.005,10.005,0,0,1,46.241,0L48.3,0A8,8,0,0,0,48,2.18V12.76L73.53,0Z"/></g><g transform="translate(-7374 -10775.998)"><path class="c" d="M10,0,40,15l2,1V2.18A10.005,10.005,0,0,0,41.76,0L39.7,0A8,8,0,0,1,40,2.18V12.76L14.47,0ZM41.76,24a10,10,0,0,0-5.29-6.76L4,1,2,0V13.82a10,10,0,0,0,5.53,8.94L10,24h4.47L8.42,20.98A8,8,0,0,1,4,13.82V3.24L35.58,19.02A8,8,0,0,1,39.7,24ZM78,24l2.47-1.24A10,10,0,0,0,86,13.82V0L84,1,51.53,17.24A10,10,0,0,0,46.24,24H48.3a8,8,0,0,1,4.12-4.98L84,3.24V13.82a8,8,0,0,1-4.42,7.16L73.53,24ZM78,0,48,15l-2,1V2.18A10.005,10.005,0,0,1,46.241,0L48.3,0A8,8,0,0,0,48,2.18V12.76L73.53,0Z"/></g><g transform="translate(-7286 -10775.998)"><path class="c" d="M10,0,40,15l2,1V2.18A10.005,10.005,0,0,0,41.76,0L39.7,0A8,8,0,0,1,40,2.18V12.76L14.47,0ZM41.76,24a10,10,0,0,0-5.29-6.76L4,1,2,0V13.82a10,10,0,0,0,5.53,8.94L10,24h4.47L8.42,20.98A8,8,0,0,1,4,13.82V3.24L35.58,19.02A8,8,0,0,1,39.7,24ZM78,24l2.47-1.24A10,10,0,0,0,86,13.82V0L84,1,51.53,17.24A10,10,0,0,0,46.24,24H48.3a8,8,0,0,1,4.12-4.98L84,3.24V13.82a8,8,0,0,1-4.42,7.16L73.53,24ZM78,0,48,15l-2,1V2.18A10.005,10.005,0,0,1,46.241,0L48.3,0A8,8,0,0,0,48,2.18V12.76L73.53,0Z"/></g><g transform="translate(-7198 -10775.998)"><path class="c" d="M10,0,40,15l2,1V2.18A10.005,10.005,0,0,0,41.76,0L39.7,0A8,8,0,0,1,40,2.18V12.76L14.47,0ZM41.76,24a10,10,0,0,0-5.29-6.76L4,1,2,0V13.82a10,10,0,0,0,5.53,8.94L10,24h4.47L8.42,20.98A8,8,0,0,1,4,13.82V3.24L35.58,19.02A8,8,0,0,1,39.7,24ZM78,24l2.47-1.24A10,10,0,0,0,86,13.82V0L84,1,51.53,17.24A10,10,0,0,0,46.24,24H48.3a8,8,0,0,1,4.12-4.98L84,3.24V13.82a8,8,0,0,1-4.42,7.16L73.53,24ZM78,0,48,15l-2,1V2.18A10.005,10.005,0,0,1,46.241,0L48.3,0A8,8,0,0,0,48,2.18V12.76L73.53,0Z"/></g><g transform="translate(-8430 -10751.998)"><path class="c" d="M10,0,40,15l2,1V2.18A10.005,10.005,0,0,0,41.76,0L39.7,0A8,8,0,0,1,40,2.18V12.76L14.47,0ZM41.76,24a10,10,0,0,0-5.29-6.76L4,1,2,0V13.82a10,10,0,0,0,5.53,8.94L10,24h4.47L8.42,20.98A8,8,0,0,1,4,13.82V3.24L35.58,19.02A8,8,0,0,1,39.7,24ZM78,24l2.47-1.24A10,10,0,0,0,86,13.82V0L84,1,51.53,17.24A10,10,0,0,0,46.24,24H48.3a8,8,0,0,1,4.12-4.98L84,3.24V13.82a8,8,0,0,1-4.42,7.16L73.53,24ZM78,0,48,15l-2,1V2.18A10.005,10.005,0,0,1,46.241,0L48.3,0A8,8,0,0,0,48,2.18V12.76L73.53,0Z"/></g><g transform="translate(-8342 -10751.998)"><path class="c" d="M10,0,40,15l2,1V2.18A10.005,10.005,0,0,0,41.76,0L39.7,0A8,8,0,0,1,40,2.18V12.76L14.47,0ZM41.76,24a10,10,0,0,0-5.29-6.76L4,1,2,0V13.82a10,10,0,0,0,5.53,8.94L10,24h4.47L8.42,20.98A8,8,0,0,1,4,13.82V3.24L35.58,19.02A8,8,0,0,1,39.7,24ZM78,24l2.47-1.24A10,10,0,0,0,86,13.82V0L84,1,51.53,17.24A10,10,0,0,0,46.24,24H48.3a8,8,0,0,1,4.12-4.98L84,3.24V13.82a8,8,0,0,1-4.42,7.16L73.53,24ZM78,0,48,15l-2,1V2.18A10.005,10.005,0,0,1,46.241,0L48.3,0A8,8,0,0,0,48,2.18V12.76L73.53,0Z"/></g><g transform="translate(-8254 -10751.998)"><path class="c" d="M10,0,40,15l2,1V2.18A10.005,10.005,0,0,0,41.76,0L39.7,0A8,8,0,0,1,40,2.18V12.76L14.47,0ZM41.76,24a10,10,0,0,0-5.29-6.76L4,1,2,0V13.82a10,10,0,0,0,5.53,8.94L10,24h4.47L8.42,20.98A8,8,0,0,1,4,13.82V3.24L35.58,19.02A8,8,0,0,1,39.7,24ZM78,24l2.47-1.24A10,10,0,0,0,86,13.82V0L84,1,51.53,17.24A10,10,0,0,0,46.24,24H48.3a8,8,0,0,1,4.12-4.98L84,3.24V13.82a8,8,0,0,1-4.42,7.16L73.53,24ZM78,0,48,15l-2,1V2.18A10.005,10.005,0,0,1,46.241,0L48.3,0A8,8,0,0,0,48,2.18V12.76L73.53,0Z"/></g><g transform="translate(-8166 -10751.998)"><path class="c" d="M10,0,40,15l2,1V2.18A10.005,10.005,0,0,0,41.76,0L39.7,0A8,8,0,0,1,40,2.18V12.76L14.47,0ZM41.76,24a10,10,0,0,0-5.29-6.76L4,1,2,0V13.82a10,10,0,0,0,5.53,8.94L10,24h4.47L8.42,20.98A8,8,0,0,1,4,13.82V3.24L35.58,19.02A8,8,0,0,1,39.7,24ZM78,24l2.47-1.24A10,10,0,0,0,86,13.82V0L84,1,51.53,17.24A10,10,0,0,0,46.24,24H48.3a8,8,0,0,1,4.12-4.98L84,3.24V13.82a8,8,0,0,1-4.42,7.16L73.53,24ZM78,0,48,15l-2,1V2.18A10.005,10.005,0,0,1,46.241,0L48.3,0A8,8,0,0,0,48,2.18V12.76L73.53,0Z"/></g><g transform="translate(-8078 -10751.998)"><path class="c" d="M10,0,40,15l2,1V2.18A10.005,10.005,0,0,0,41.76,0L39.7,0A8,8,0,0,1,40,2.18V12.76L14.47,0ZM41.76,24a10,10,0,0,0-5.29-6.76L4,1,2,0V13.82a10,10,0,0,0,5.53,8.94L10,24h4.47L8.42,20.98A8,8,0,0,1,4,13.82V3.24L35.58,19.02A8,8,0,0,1,39.7,24ZM78,24l2.47-1.24A10,10,0,0,0,86,13.82V0L84,1,51.53,17.24A10,10,0,0,0,46.24,24H48.3a8,8,0,0,1,4.12-4.98L84,3.24V13.82a8,8,0,0,1-4.42,7.16L73.53,24ZM78,0,48,15l-2,1V2.18A10.005,10.005,0,0,1,46.241,0L48.3,0A8,8,0,0,0,48,2.18V12.76L73.53,0Z"/></g><g transform="translate(-7990 -10751.998)"><path class="c" d="M10,0,40,15l2,1V2.18A10.005,10.005,0,0,0,41.76,0L39.7,0A8,8,0,0,1,40,2.18V12.76L14.47,0ZM41.76,24a10,10,0,0,0-5.29-6.76L4,1,2,0V13.82a10,10,0,0,0,5.53,8.94L10,24h4.47L8.42,20.98A8,8,0,0,1,4,13.82V3.24L35.58,19.02A8,8,0,0,1,39.7,24ZM78,24l2.47-1.24A10,10,0,0,0,86,13.82V0L84,1,51.53,17.24A10,10,0,0,0,46.24,24H48.3a8,8,0,0,1,4.12-4.98L84,3.24V13.82a8,8,0,0,1-4.42,7.16L73.53,24ZM78,0,48,15l-2,1V2.18A10.005,10.005,0,0,1,46.241,0L48.3,0A8,8,0,0,0,48,2.18V12.76L73.53,0Z"/></g><g transform="translate(-7902 -10751.998)"><path class="c" d="M10,0,40,15l2,1V2.18A10.005,10.005,0,0,0,41.76,0L39.7,0A8,8,0,0,1,40,2.18V12.76L14.47,0ZM41.76,24a10,10,0,0,0-5.29-6.76L4,1,2,0V13.82a10,10,0,0,0,5.53,8.94L10,24h4.47L8.42,20.98A8,8,0,0,1,4,13.82V3.24L35.58,19.02A8,8,0,0,1,39.7,24ZM78,24l2.47-1.24A10,10,0,0,0,86,13.82V0L84,1,51.53,17.24A10,10,0,0,0,46.24,24H48.3a8,8,0,0,1,4.12-4.98L84,3.24V13.82a8,8,0,0,1-4.42,7.16L73.53,24ZM78,0,48,15l-2,1V2.18A10.005,10.005,0,0,1,46.241,0L48.3,0A8,8,0,0,0,48,2.18V12.76L73.53,0Z"/></g><g transform="translate(-7814 -10751.998)"><path class="c" d="M10,0,40,15l2,1V2.18A10.005,10.005,0,0,0,41.76,0L39.7,0A8,8,0,0,1,40,2.18V12.76L14.47,0ZM41.76,24a10,10,0,0,0-5.29-6.76L4,1,2,0V13.82a10,10,0,0,0,5.53,8.94L10,24h4.47L8.42,20.98A8,8,0,0,1,4,13.82V3.24L35.58,19.02A8,8,0,0,1,39.7,24ZM78,24l2.47-1.24A10,10,0,0,0,86,13.82V0L84,1,51.53,17.24A10,10,0,0,0,46.24,24H48.3a8,8,0,0,1,4.12-4.98L84,3.24V13.82a8,8,0,0,1-4.42,7.16L73.53,24ZM78,0,48,15l-2,1V2.18A10.005,10.005,0,0,1,46.241,0L48.3,0A8,8,0,0,0,48,2.18V12.76L73.53,0Z"/></g><g transform="translate(-7726 -10751.998)"><path class="c" d="M10,0,40,15l2,1V2.18A10.005,10.005,0,0,0,41.76,0L39.7,0A8,8,0,0,1,40,2.18V12.76L14.47,0ZM41.76,24a10,10,0,0,0-5.29-6.76L4,1,2,0V13.82a10,10,0,0,0,5.53,8.94L10,24h4.47L8.42,20.98A8,8,0,0,1,4,13.82V3.24L35.58,19.02A8,8,0,0,1,39.7,24ZM78,24l2.47-1.24A10,10,0,0,0,86,13.82V0L84,1,51.53,17.24A10,10,0,0,0,46.24,24H48.3a8,8,0,0,1,4.12-4.98L84,3.24V13.82a8,8,0,0,1-4.42,7.16L73.53,24ZM78,0,48,15l-2,1V2.18A10.005,10.005,0,0,1,46.241,0L48.3,0A8,8,0,0,0,48,2.18V12.76L73.53,0Z"/></g><g transform="translate(-7638 -10751.998)"><path class="c" d="M10,0,40,15l2,1V2.18A10.005,10.005,0,0,0,41.76,0L39.7,0A8,8,0,0,1,40,2.18V12.76L14.47,0ZM41.76,24a10,10,0,0,0-5.29-6.76L4,1,2,0V13.82a10,10,0,0,0,5.53,8.94L10,24h4.47L8.42,20.98A8,8,0,0,1,4,13.82V3.24L35.58,19.02A8,8,0,0,1,39.7,24ZM78,24l2.47-1.24A10,10,0,0,0,86,13.82V0L84,1,51.53,17.24A10,10,0,0,0,46.24,24H48.3a8,8,0,0,1,4.12-4.98L84,3.24V13.82a8,8,0,0,1-4.42,7.16L73.53,24ZM78,0,48,15l-2,1V2.18A10.005,10.005,0,0,1,46.241,0L48.3,0A8,8,0,0,0,48,2.18V12.76L73.53,0Z"/></g><g transform="translate(-7550 -10751.998)"><path class="c" d="M10,0,40,15l2,1V2.18A10.005,10.005,0,0,0,41.76,0L39.7,0A8,8,0,0,1,40,2.18V12.76L14.47,0ZM41.76,24a10,10,0,0,0-5.29-6.76L4,1,2,0V13.82a10,10,0,0,0,5.53,8.94L10,24h4.47L8.42,20.98A8,8,0,0,1,4,13.82V3.24L35.58,19.02A8,8,0,0,1,39.7,24ZM78,24l2.47-1.24A10,10,0,0,0,86,13.82V0L84,1,51.53,17.24A10,10,0,0,0,46.24,24H48.3a8,8,0,0,1,4.12-4.98L84,3.24V13.82a8,8,0,0,1-4.42,7.16L73.53,24ZM78,0,48,15l-2,1V2.18A10.005,10.005,0,0,1,46.241,0L48.3,0A8,8,0,0,0,48,2.18V12.76L73.53,0Z"/></g><g transform="translate(-7462 -10751.998)"><path class="c" d="M10,0,40,15l2,1V2.18A10.005,10.005,0,0,0,41.76,0L39.7,0A8,8,0,0,1,40,2.18V12.76L14.47,0ZM41.76,24a10,10,0,0,0-5.29-6.76L4,1,2,0V13.82a10,10,0,0,0,5.53,8.94L10,24h4.47L8.42,20.98A8,8,0,0,1,4,13.82V3.24L35.58,19.02A8,8,0,0,1,39.7,24ZM78,24l2.47-1.24A10,10,0,0,0,86,13.82V0L84,1,51.53,17.24A10,10,0,0,0,46.24,24H48.3a8,8,0,0,1,4.12-4.98L84,3.24V13.82a8,8,0,0,1-4.42,7.16L73.53,24ZM78,0,48,15l-2,1V2.18A10.005,10.005,0,0,1,46.241,0L48.3,0A8,8,0,0,0,48,2.18V12.76L73.53,0Z"/></g><g transform="translate(-7374 -10751.998)"><path class="c" d="M10,0,40,15l2,1V2.18A10.005,10.005,0,0,0,41.76,0L39.7,0A8,8,0,0,1,40,2.18V12.76L14.47,0ZM41.76,24a10,10,0,0,0-5.29-6.76L4,1,2,0V13.82a10,10,0,0,0,5.53,8.94L10,24h4.47L8.42,20.98A8,8,0,0,1,4,13.82V3.24L35.58,19.02A8,8,0,0,1,39.7,24ZM78,24l2.47-1.24A10,10,0,0,0,86,13.82V0L84,1,51.53,17.24A10,10,0,0,0,46.24,24H48.3a8,8,0,0,1,4.12-4.98L84,3.24V13.82a8,8,0,0,1-4.42,7.16L73.53,24ZM78,0,48,15l-2,1V2.18A10.005,10.005,0,0,1,46.241,0L48.3,0A8,8,0,0,0,48,2.18V12.76L73.53,0Z"/></g><g transform="translate(-7286 -10751.998)"><path class="c" d="M10,0,40,15l2,1V2.18A10.005,10.005,0,0,0,41.76,0L39.7,0A8,8,0,0,1,40,2.18V12.76L14.47,0ZM41.76,24a10,10,0,0,0-5.29-6.76L4,1,2,0V13.82a10,10,0,0,0,5.53,8.94L10,24h4.47L8.42,20.98A8,8,0,0,1,4,13.82V3.24L35.58,19.02A8,8,0,0,1,39.7,24ZM78,24l2.47-1.24A10,10,0,0,0,86,13.82V0L84,1,51.53,17.24A10,10,0,0,0,46.24,24H48.3a8,8,0,0,1,4.12-4.98L84,3.24V13.82a8,8,0,0,1-4.42,7.16L73.53,24ZM78,0,48,15l-2,1V2.18A10.005,10.005,0,0,1,46.241,0L48.3,0A8,8,0,0,0,48,2.18V12.76L73.53,0Z"/></g><g transform="translate(-7198 -10751.998)"><path class="c" d="M10,0,40,15l2,1V2.18A10.005,10.005,0,0,0,41.76,0L39.7,0A8,8,0,0,1,40,2.18V12.76L14.47,0ZM41.76,24a10,10,0,0,0-5.29-6.76L4,1,2,0V13.82a10,10,0,0,0,5.53,8.94L10,24h4.47L8.42,20.98A8,8,0,0,1,4,13.82V3.24L35.58,19.02A8,8,0,0,1,39.7,24ZM78,24l2.47-1.24A10,10,0,0,0,86,13.82V0L84,1,51.53,17.24A10,10,0,0,0,46.24,24H48.3a8,8,0,0,1,4.12-4.98L84,3.24V13.82a8,8,0,0,1-4.42,7.16L73.53,24ZM78,0,48,15l-2,1V2.18A10.005,10.005,0,0,1,46.241,0L48.3,0A8,8,0,0,0,48,2.18V12.76L73.53,0Z"/></g><g transform="translate(-8430 -10727.998)"><path class="c" d="M10,0,40,15l2,1V2.18A10.005,10.005,0,0,0,41.76,0L39.7,0A8,8,0,0,1,40,2.18V12.76L14.47,0ZM41.76,24a10,10,0,0,0-5.29-6.76L4,1,2,0V13.82a10,10,0,0,0,5.53,8.94L10,24h4.47L8.42,20.98A8,8,0,0,1,4,13.82V3.24L35.58,19.02A8,8,0,0,1,39.7,24ZM78,24l2.47-1.24A10,10,0,0,0,86,13.82V0L84,1,51.53,17.24A10,10,0,0,0,46.24,24H48.3a8,8,0,0,1,4.12-4.98L84,3.24V13.82a8,8,0,0,1-4.42,7.16L73.53,24ZM78,0,48,15l-2,1V2.18A10.005,10.005,0,0,1,46.241,0L48.3,0A8,8,0,0,0,48,2.18V12.76L73.53,0Z"/></g><g transform="translate(-8342 -10727.998)"><path class="c" d="M10,0,40,15l2,1V2.18A10.005,10.005,0,0,0,41.76,0L39.7,0A8,8,0,0,1,40,2.18V12.76L14.47,0ZM41.76,24a10,10,0,0,0-5.29-6.76L4,1,2,0V13.82a10,10,0,0,0,5.53,8.94L10,24h4.47L8.42,20.98A8,8,0,0,1,4,13.82V3.24L35.58,19.02A8,8,0,0,1,39.7,24ZM78,24l2.47-1.24A10,10,0,0,0,86,13.82V0L84,1,51.53,17.24A10,10,0,0,0,46.24,24H48.3a8,8,0,0,1,4.12-4.98L84,3.24V13.82a8,8,0,0,1-4.42,7.16L73.53,24ZM78,0,48,15l-2,1V2.18A10.005,10.005,0,0,1,46.241,0L48.3,0A8,8,0,0,0,48,2.18V12.76L73.53,0Z"/></g><g transform="translate(-8254 -10727.998)"><path class="c" d="M10,0,40,15l2,1V2.18A10.005,10.005,0,0,0,41.76,0L39.7,0A8,8,0,0,1,40,2.18V12.76L14.47,0ZM41.76,24a10,10,0,0,0-5.29-6.76L4,1,2,0V13.82a10,10,0,0,0,5.53,8.94L10,24h4.47L8.42,20.98A8,8,0,0,1,4,13.82V3.24L35.58,19.02A8,8,0,0,1,39.7,24ZM78,24l2.47-1.24A10,10,0,0,0,86,13.82V0L84,1,51.53,17.24A10,10,0,0,0,46.24,24H48.3a8,8,0,0,1,4.12-4.98L84,3.24V13.82a8,8,0,0,1-4.42,7.16L73.53,24ZM78,0,48,15l-2,1V2.18A10.005,10.005,0,0,1,46.241,0L48.3,0A8,8,0,0,0,48,2.18V12.76L73.53,0Z"/></g><g transform="translate(-8166 -10727.998)"><path class="c" d="M10,0,40,15l2,1V2.18A10.005,10.005,0,0,0,41.76,0L39.7,0A8,8,0,0,1,40,2.18V12.76L14.47,0ZM41.76,24a10,10,0,0,0-5.29-6.76L4,1,2,0V13.82a10,10,0,0,0,5.53,8.94L10,24h4.47L8.42,20.98A8,8,0,0,1,4,13.82V3.24L35.58,19.02A8,8,0,0,1,39.7,24ZM78,24l2.47-1.24A10,10,0,0,0,86,13.82V0L84,1,51.53,17.24A10,10,0,0,0,46.24,24H48.3a8,8,0,0,1,4.12-4.98L84,3.24V13.82a8,8,0,0,1-4.42,7.16L73.53,24ZM78,0,48,15l-2,1V2.18A10.005,10.005,0,0,1,46.241,0L48.3,0A8,8,0,0,0,48,2.18V12.76L73.53,0Z"/></g><g transform="translate(-8078 -10727.998)"><path class="c" d="M10,0,40,15l2,1V2.18A10.005,10.005,0,0,0,41.76,0L39.7,0A8,8,0,0,1,40,2.18V12.76L14.47,0ZM41.76,24a10,10,0,0,0-5.29-6.76L4,1,2,0V13.82a10,10,0,0,0,5.53,8.94L10,24h4.47L8.42,20.98A8,8,0,0,1,4,13.82V3.24L35.58,19.02A8,8,0,0,1,39.7,24ZM78,24l2.47-1.24A10,10,0,0,0,86,13.82V0L84,1,51.53,17.24A10,10,0,0,0,46.24,24H48.3a8,8,0,0,1,4.12-4.98L84,3.24V13.82a8,8,0,0,1-4.42,7.16L73.53,24ZM78,0,48,15l-2,1V2.18A10.005,10.005,0,0,1,46.241,0L48.3,0A8,8,0,0,0,48,2.18V12.76L73.53,0Z"/></g><g transform="translate(-7990 -10727.998)"><path class="c" d="M10,0,40,15l2,1V2.18A10.005,10.005,0,0,0,41.76,0L39.7,0A8,8,0,0,1,40,2.18V12.76L14.47,0ZM41.76,24a10,10,0,0,0-5.29-6.76L4,1,2,0V13.82a10,10,0,0,0,5.53,8.94L10,24h4.47L8.42,20.98A8,8,0,0,1,4,13.82V3.24L35.58,19.02A8,8,0,0,1,39.7,24ZM78,24l2.47-1.24A10,10,0,0,0,86,13.82V0L84,1,51.53,17.24A10,10,0,0,0,46.24,24H48.3a8,8,0,0,1,4.12-4.98L84,3.24V13.82a8,8,0,0,1-4.42,7.16L73.53,24ZM78,0,48,15l-2,1V2.18A10.005,10.005,0,0,1,46.241,0L48.3,0A8,8,0,0,0,48,2.18V12.76L73.53,0Z"/></g><g transform="translate(-7902 -10727.998)"><path class="c" d="M10,0,40,15l2,1V2.18A10.005,10.005,0,0,0,41.76,0L39.7,0A8,8,0,0,1,40,2.18V12.76L14.47,0ZM41.76,24a10,10,0,0,0-5.29-6.76L4,1,2,0V13.82a10,10,0,0,0,5.53,8.94L10,24h4.47L8.42,20.98A8,8,0,0,1,4,13.82V3.24L35.58,19.02A8,8,0,0,1,39.7,24ZM78,24l2.47-1.24A10,10,0,0,0,86,13.82V0L84,1,51.53,17.24A10,10,0,0,0,46.24,24H48.3a8,8,0,0,1,4.12-4.98L84,3.24V13.82a8,8,0,0,1-4.42,7.16L73.53,24ZM78,0,48,15l-2,1V2.18A10.005,10.005,0,0,1,46.241,0L48.3,0A8,8,0,0,0,48,2.18V12.76L73.53,0Z"/></g><g transform="translate(-7814 -10727.998)"><path class="c" d="M10,0,40,15l2,1V2.18A10.005,10.005,0,0,0,41.76,0L39.7,0A8,8,0,0,1,40,2.18V12.76L14.47,0ZM41.76,24a10,10,0,0,0-5.29-6.76L4,1,2,0V13.82a10,10,0,0,0,5.53,8.94L10,24h4.47L8.42,20.98A8,8,0,0,1,4,13.82V3.24L35.58,19.02A8,8,0,0,1,39.7,24ZM78,24l2.47-1.24A10,10,0,0,0,86,13.82V0L84,1,51.53,17.24A10,10,0,0,0,46.24,24H48.3a8,8,0,0,1,4.12-4.98L84,3.24V13.82a8,8,0,0,1-4.42,7.16L73.53,24ZM78,0,48,15l-2,1V2.18A10.005,10.005,0,0,1,46.241,0L48.3,0A8,8,0,0,0,48,2.18V12.76L73.53,0Z"/></g><g transform="translate(-7726 -10727.998)"><path class="c" d="M10,0,40,15l2,1V2.18A10.005,10.005,0,0,0,41.76,0L39.7,0A8,8,0,0,1,40,2.18V12.76L14.47,0ZM41.76,24a10,10,0,0,0-5.29-6.76L4,1,2,0V13.82a10,10,0,0,0,5.53,8.94L10,24h4.47L8.42,20.98A8,8,0,0,1,4,13.82V3.24L35.58,19.02A8,8,0,0,1,39.7,24ZM78,24l2.47-1.24A10,10,0,0,0,86,13.82V0L84,1,51.53,17.24A10,10,0,0,0,46.24,24H48.3a8,8,0,0,1,4.12-4.98L84,3.24V13.82a8,8,0,0,1-4.42,7.16L73.53,24ZM78,0,48,15l-2,1V2.18A10.005,10.005,0,0,1,46.241,0L48.3,0A8,8,0,0,0,48,2.18V12.76L73.53,0Z"/></g><g transform="translate(-7638 -10727.998)"><path class="c" d="M10,0,40,15l2,1V2.18A10.005,10.005,0,0,0,41.76,0L39.7,0A8,8,0,0,1,40,2.18V12.76L14.47,0ZM41.76,24a10,10,0,0,0-5.29-6.76L4,1,2,0V13.82a10,10,0,0,0,5.53,8.94L10,24h4.47L8.42,20.98A8,8,0,0,1,4,13.82V3.24L35.58,19.02A8,8,0,0,1,39.7,24ZM78,24l2.47-1.24A10,10,0,0,0,86,13.82V0L84,1,51.53,17.24A10,10,0,0,0,46.24,24H48.3a8,8,0,0,1,4.12-4.98L84,3.24V13.82a8,8,0,0,1-4.42,7.16L73.53,24ZM78,0,48,15l-2,1V2.18A10.005,10.005,0,0,1,46.241,0L48.3,0A8,8,0,0,0,48,2.18V12.76L73.53,0Z"/></g><g transform="translate(-7550 -10727.998)"><path class="c" d="M10,0,40,15l2,1V2.18A10.005,10.005,0,0,0,41.76,0L39.7,0A8,8,0,0,1,40,2.18V12.76L14.47,0ZM41.76,24a10,10,0,0,0-5.29-6.76L4,1,2,0V13.82a10,10,0,0,0,5.53,8.94L10,24h4.47L8.42,20.98A8,8,0,0,1,4,13.82V3.24L35.58,19.02A8,8,0,0,1,39.7,24ZM78,24l2.47-1.24A10,10,0,0,0,86,13.82V0L84,1,51.53,17.24A10,10,0,0,0,46.24,24H48.3a8,8,0,0,1,4.12-4.98L84,3.24V13.82a8,8,0,0,1-4.42,7.16L73.53,24ZM78,0,48,15l-2,1V2.18A10.005,10.005,0,0,1,46.241,0L48.3,0A8,8,0,0,0,48,2.18V12.76L73.53,0Z"/></g><g transform="translate(-7462 -10727.998)"><path class="c" d="M10,0,40,15l2,1V2.18A10.005,10.005,0,0,0,41.76,0L39.7,0A8,8,0,0,1,40,2.18V12.76L14.47,0ZM41.76,24a10,10,0,0,0-5.29-6.76L4,1,2,0V13.82a10,10,0,0,0,5.53,8.94L10,24h4.47L8.42,20.98A8,8,0,0,1,4,13.82V3.24L35.58,19.02A8,8,0,0,1,39.7,24ZM78,24l2.47-1.24A10,10,0,0,0,86,13.82V0L84,1,51.53,17.24A10,10,0,0,0,46.24,24H48.3a8,8,0,0,1,4.12-4.98L84,3.24V13.82a8,8,0,0,1-4.42,7.16L73.53,24ZM78,0,48,15l-2,1V2.18A10.005,10.005,0,0,1,46.241,0L48.3,0A8,8,0,0,0,48,2.18V12.76L73.53,0Z"/></g><g transform="translate(-7374 -10727.998)"><path class="c" d="M10,0,40,15l2,1V2.18A10.005,10.005,0,0,0,41.76,0L39.7,0A8,8,0,0,1,40,2.18V12.76L14.47,0ZM41.76,24a10,10,0,0,0-5.29-6.76L4,1,2,0V13.82a10,10,0,0,0,5.53,8.94L10,24h4.47L8.42,20.98A8,8,0,0,1,4,13.82V3.24L35.58,19.02A8,8,0,0,1,39.7,24ZM78,24l2.47-1.24A10,10,0,0,0,86,13.82V0L84,1,51.53,17.24A10,10,0,0,0,46.24,24H48.3a8,8,0,0,1,4.12-4.98L84,3.24V13.82a8,8,0,0,1-4.42,7.16L73.53,24ZM78,0,48,15l-2,1V2.18A10.005,10.005,0,0,1,46.241,0L48.3,0A8,8,0,0,0,48,2.18V12.76L73.53,0Z"/></g><g transform="translate(-7286 -10727.998)"><path class="c" d="M10,0,40,15l2,1V2.18A10.005,10.005,0,0,0,41.76,0L39.7,0A8,8,0,0,1,40,2.18V12.76L14.47,0ZM41.76,24a10,10,0,0,0-5.29-6.76L4,1,2,0V13.82a10,10,0,0,0,5.53,8.94L10,24h4.47L8.42,20.98A8,8,0,0,1,4,13.82V3.24L35.58,19.02A8,8,0,0,1,39.7,24ZM78,24l2.47-1.24A10,10,0,0,0,86,13.82V0L84,1,51.53,17.24A10,10,0,0,0,46.24,24H48.3a8,8,0,0,1,4.12-4.98L84,3.24V13.82a8,8,0,0,1-4.42,7.16L73.53,24ZM78,0,48,15l-2,1V2.18A10.005,10.005,0,0,1,46.241,0L48.3,0A8,8,0,0,0,48,2.18V12.76L73.53,0Z"/></g><g transform="translate(-7198 -10727.998)"><path class="c" d="M10,0,40,15l2,1V2.18A10.005,10.005,0,0,0,41.76,0L39.7,0A8,8,0,0,1,40,2.18V12.76L14.47,0ZM41.76,24a10,10,0,0,0-5.29-6.76L4,1,2,0V13.82a10,10,0,0,0,5.53,8.94L10,24h4.47L8.42,20.98A8,8,0,0,1,4,13.82V3.24L35.58,19.02A8,8,0,0,1,39.7,24ZM78,24l2.47-1.24A10,10,0,0,0,86,13.82V0L84,1,51.53,17.24A10,10,0,0,0,46.24,24H48.3a8,8,0,0,1,4.12-4.98L84,3.24V13.82a8,8,0,0,1-4.42,7.16L73.53,24ZM78,0,48,15l-2,1V2.18A10.005,10.005,0,0,1,46.241,0L48.3,0A8,8,0,0,0,48,2.18V12.76L73.53,0Z"/></g></g></g></svg>